<svg class="typst-doc" viewBox="0 0 325.98425196850394 325.98425196850394" width="325.98425196850394pt" height="325.98425196850394pt" xmlns="http://www.w3.org/2000/svg" xmlns:xlink="http://www.w3.org/1999/xlink" xmlns:h5="http://www.w3.org/1999/xhtml">
    <path class="typst-shape" fill="#ffffff" fill-rule="nonzero" d="M 0 0v 325.98425 h 325.98425 v -325.98425 Z "/>
    <g>
        <g class="typst-group">
            <g>
                <g class="typst-group" transform="matrix(1 0 0 1 14.173228346456693 14.173228346456693)">
                    <g>
                        <g class="typst-group">
                            <g>
                                <g class="typst-group" clip-path="url(#c36874164E2314C0ADFE608A53A6B4D25)">
                                    <g>
                                        <g class="typst-group">
                                            <g>
                                                <path class="typst-shape" fill="#f8bd69" fill-rule="nonzero" d="M 0 0m 120.47244 276.37796 l 0.085121155 -0.25460815 l 0.085128784 -0.25308228 l 0.085121155 -0.2515564 l 0.085128784 -0.25003052 l 0.085121155 -0.24853516 l 0.085121155 -0.24697876 l 0.085128784 -0.24551392 l 0.085121155 -0.24398804 l 0.085128784 -0.2425232 l 0.085121155 -0.24099731 l 0.085128784 -0.23953247 l 0.085121155 -0.23803711 l 0.085121155 -0.23657227 l 0.085128784 -0.2350769 l 0.085121155 -0.23361206 l 0.085128784 -0.23214722 l 0.085121155 -0.23071289 l 0.085128784 -0.22921753 l 0.085121155 -0.22781372 l 0.085128784 -0.22631836 l 0.085121155 -0.22491455 l 0.085121155 -0.2234497 l 0.085128784 -0.2220459 l 0.085121155 -0.22058105 l 0.085128784 -0.21917725 l 0.085121155 -0.21777344 l 0.085128784 -0.21633911 l 0.085121155 -0.2149353 l 0.085121155 -0.2135315 l 0.085128784 -0.21212769 l 0.085121155 -0.2107544 l 0.085128784 -0.20935059 l 0.085121155 -0.20794678 l 0.085128784 -0.20657349 l 0.085121155 -0.2052002 l 0.085128784 -0.2038269 l 0.085121155 -0.20245361 l 0.085121155 -0.20111084 l 0.085128784 -0.19973755 l 0.085121155 -0.19836426 l 0.085128784 -0.197052 l 0.085121155 -0.19567871 l 0.085128784 -0.19433594 l 0.085121155 -0.19302368 l 0.085121155 -0.19168091 l 0.085128784 -0.19036865 l 0.085121155 -0.18902588 l 0.085128784 -0.18771362 l 0.085121155 -0.18640137 l 0.085128784 -0.18508911 l 0.085121155 -0.18380737 l 0.085128784 -0.1824646 l 0.085121155 -0.18121338 l 0.085121155 -0.17990112 l 0.085128784 -0.17861938 l 0.085121155 -0.17733765 l 0.085128784 -0.17608643 l 0.085121155 -0.17480469 l 0.085128784 -0.17352295 l 0.085121155 -0.17227173 l 0.085121155 -0.17098999 l 0.085128784 -0.16976929 l 0.085121155 -0.16851807 l 0.085128784 -0.16723633 l 0.085121155 -0.16604614 l 0.085128784 -0.16479492 l 0.085121155 -0.1635437 l 0.085128784 -0.16235352 l 0.085121155 -0.1611023 l 0.085121155 -0.15991211 l 0.085128784 -0.1586914 l 0.085121155 -0.1574707 l 0.085128784 -0.15628052 l 0.085121155 -0.15509033 l 0.085128784 -0.15390015 l 0.085121155 -0.15267944 l 0.085121155 -0.15151978 l 0.085128784 -0.15032959 l 0.085121155 -0.14916992 l 0.085128784 -0.14801025 l 0.085121155 -0.14682007 l 0.085128784 -0.1456604 l 0.085121155 -0.14453125 l 0.085128784 -0.14334106 l 0.085121155 -0.14221191 l 0.085121155 -0.14108276 l 0.085128784 -0.1399231 l 0.085121155 -0.13879395 l 0.085128784 -0.13769531 l 0.085128784 -0.13653564 l 0.085113525 -0.13543701 l 0.085128784 -0.13430786 l 0.085128784 -0.13320923 l 0.085113525 -0.13208008 l 0.085128784 -0.13101196 l 0.085128784 -0.12991333 l 0.085128784 -0.1288147 l 0.085113525 -0.12771606 l 0.085128784 -0.12664795 l 0.085128784 -0.12554932 l 0.085113525 -0.1244812 l 0.085128784 -0.1234436 l 0.085128784 -0.12234497 l 0.085128784 -0.12130737 l 0.085113525 -0.12023926 l 0.085128784 -0.11917114 l 0.085128784 -0.11816406 l 0.085128784 -0.11709595 l 0.085113525 -0.11608887 l 0.085128784 -0.11502075 l 0.085128784 -0.11401367 l 0.085113525 -0.11300659 l 0.085128784 -0.111968994 l 0.085128784 -0.1109314 l 0.085128784 -0.10997009 l 0.085113525 -0.108932495 l 0.085128784 -0.10795593 l 0.085128784 -0.10694885 l 0.085113525 -0.10595703 l 0.085128784 -0.10498047 l 0.085128784 -0.10398865 l 0.085128784 -0.103012085 l 0.085113525 -0.10205078 l 0.085128784 -0.10107422 l 0.085128784 -0.100112915 l 0.085113525 -0.09916687 l 0.085128784 -0.09820557 l 0.085128784 -0.09724426 l 0.085128784 -0.09631348 l 0.085113525 -0.09536743 l 0.085128784 -0.094436646 l 0.085128784 -0.09350586 l 0.085128784 -0.09259033 l 0.085113525 -0.091659546 l 0.085128784 -0.09072876 l 0.085128784 -0.08984375 l 0.085113525 -0.088912964 l 0.085128784 -0.088027954 l 0.085128784 -0.08711243 l 0.085128784 -0.08622742 l 0.085113525 -0.08534241 l 0.085128784 -0.0844574 l 0.085128784 -0.08357239 l 0.085113525 -0.08270264 l 0.085128784 -0.081832886 l 0.085128784 -0.080963135 l 0.085128784 -0.080093384 l 0.085113525 -0.07925415 l 0.085128784 -0.07839966 l 0.085128784 -0.077545166 l 0.085113525 -0.076690674 l 0.085128784 -0.0758667 l 0.085128784 -0.075042725 l 0.085128784 -0.07418823 l 0.085113525 -0.07337952 l 0.085128784 -0.0725708 l 0.085128784 -0.07173157 l 0.085113525 -0.07093811 l 0.085128784 -0.070129395 l 0.085128784 -0.06932068 l 0.085128784 -0.06852722 l 0.085113525 -0.067733765 l 0.085128784 -0.06695557 l 0.085128784 -0.06616211 l 0.085128784 -0.06538391 l 0.085113525 -0.06460571 l 0.085128784 -0.06384277 l 0.085128784 -0.063079834 l 0.085113525 -0.062332153 l 0.085128784 -0.061553955 l 0.085128784 -0.060821533 l 0.085128784 -0.060058594 l 0.085113525 -0.059326172 l 0.085128784 -0.05859375 l 0.085128784 -0.05784607 l 0.085113525 -0.057128906 l 0.085128784 -0.056411743 l 0.085128784 -0.05567932 l 0.085128784 -0.054977417 l 0.085113525 -0.054260254 l 0.085128784 -0.05355835 l 0.085128784 -0.052856445 l 0.085113525 -0.0521698 l 0.085128784 -0.051467896 l 0.085128784 -0.05078125 l 0.085128784 -0.050109863 l 0.085113525 -0.049423218 l 0.085128784 -0.04875183 l 0.085128784 -0.048095703 l 0.085113525 -0.047424316 l 0.085128784 -0.04676819 l 0.085128784 -0.04611206 l 0.085128784 -0.045455933 l 0.085113525 -0.044815063 l 0.085128784 -0.044174194 l 0.085128784 -0.043548584 l 0.085128784 -0.042907715 l 0.085113525 -0.042282104 l 0.085128784 -0.041656494 l 0.085128784 -0.041046143 l 0.085113525 -0.04043579 l 0.085128784 -0.03982544 l 0.085128784 -0.039215088 l 0.085128784 -0.038619995 l 0.085113525 -0.038024902 l 0.085128784 -0.03744507 l 0.085128784 -0.036849976 l 0.085113525 -0.03627014 l 0.085128784 -0.035690308 l 0.085128784 -0.035125732 l 0.085128784 -0.034561157 l 0.085113525 -0.033996582 l 0.085128784 -0.033447266 l 0.085128784 -0.03288269 l 0.085113525 -0.032348633 l 0.085128784 -0.031784058 l 0.085128784 -0.03126526 l 0.085128784 -0.030715942 l 0.085113525 -0.030197144 l 0.085128784 -0.029663086 l 0.085128784 -0.029144287 l 0.085113525 -0.028640747 l 0.085128784 -0.028121948 l 0.085128784 -0.02760315 l 0.085128784 -0.027114868 l 0.085113525 -0.026611328 l 0.085128784 -0.026123047 l 0.085128784 -0.025634766 l 0.085128784 -0.025146484 l 0.085113525 -0.024673462 l 0.085128784 -0.02420044 l 0.085128784 -0.023712158 l 0.085113525 -0.023269653 l 0.085128784 -0.02279663 l 0.085128784 -0.022338867 l 0.085128784 -0.021896362 l 0.085113525 -0.021453857 l 0.085128784 -0.020996094 l 0.085128784 -0.020568848 l 0.085113525 -0.020126343 l 0.085128784 -0.019714355 l 0.085128784 -0.01927185 l 0.085128784 -0.018875122 l 0.085113525 -0.018447876 l 0.085128784 -0.018035889 l 0.085128784 -0.017623901 l 0.085113525 -0.017242432 l 0.085128784 -0.016830444 l 0.085128784 -0.016448975 l 0.085128784 -0.016052246 l 0.085113525 -0.015670776 l 0.085128784 -0.015304565 l 0.085128784 -0.014923096 l 0.085113525 -0.014556885 l 0.085128784 -0.014190674 l 0.085128784 -0.013824463 l 0.085128784 -0.013473511 l 0.085113525 -0.013137817 l 0.085128784 -0.012771606 l 0.085128784 -0.012451172 l 0.085128784 -0.01210022 l 0.085113525 -0.011779785 l 0.085128784 -0.011444092 l 0.085128784 -0.011123657 l 0.085113525 -0.010803223 l 0.085128784 -0.010498047 l 0.085128784 -0.010177612 l 0.085128784 -0.009887695 l 0.085113525 -0.0095825195 l 0.085128784 -0.009277344 l 0.085128784 -0.009002686 l 0.085113525 -0.008712769 l 0.085128784 -0.008422852 l 0.085128784 -0.008148193 l 0.085128784 -0.007888794 l 0.085113525 -0.0076141357 l 0.085128784 -0.0073547363 l 0.085128784 -0.007095337 l 0.085113525 -0.0068359375 l 0.085128784 -0.006591797 l 0.085128784 -0.0063476563 l 0.085128784 -0.0061035156 l 0.085113525 -0.005874634 l 0.085128784 -0.005645752 l 0.085128784 -0.00541687 l 0.085113525 -0.005203247 l 0.085128784 -0.0049743652 l 0.085128784 -0.004760742 l 0.085128784 -0.004562378 l 0.085113525 -0.0043640137 l 0.085128784 -0.0041656494 l 0.085128784 -0.003967285 l 0.085128784 -0.003768921 l 0.085113525 -0.0036010742 l 0.085128784 -0.00340271 l 0.085128784 -0.003250122 l 0.085113525 -0.0030670166 l 0.085128784 -0.00289917 l 0.085128784 -0.002746582 l 0.085128784 -0.0025787354 l 0.085113525 -0.0024261475 l 0.085128784 -0.0022888184 l 0.085128784 -0.0021514893 l 0.085113525 -0.0019989014 l 0.085128784 -0.0018615723 l 0.085128784 -0.0017547607 l 0.085128784 -0.0016174316 l 0.085113525 -0.0014953613 l 0.085128784 -0.001373291 l 0.085128784 -0.0012817383 l 0.085113525 -0.001159668 l 0.085128784 -0.0010681152 l 0.085128784 -0.0009613037 l 0.085128784 -0.00088500977 l 0.085113525 -0.00077819824 l 0.085128784 -0.0007171631 l 0.085128784 -0.00062561035 l 0.085113525 -0.0005493164 l 0.085128784 -0.00048828125 l 0.085128784 -0.0004119873 l 0.085128784 -0.00036621094 l 0.085113525 -0.00030517578 l 0.085128784 -0.0002593994 l 0.085128784 -0.00019836426 l 0.085128784 -0.00016784668 l 0.085113525 -0.0001373291 l 0.085128784 -0.000091552734 l 0.085128784 -0.000076293945 l 0.085113525 -0.000045776367 l 0.085128784 -0.000030517578 h 0.085128784 l 0.085128784 -0.000015258789 h 0.085113525 h 0.085128784 h 0.085128784 l 0.085113525 -0.000015258789 l 0.085128784 -0.000030517578 l 0.085128784 -0.000045776367 l 0.085128784 -0.000076293945 l 0.085113525 -0.000091552734 l 0.085128784 -0.0001373291 l 0.085128784 -0.00016784668 l 0.085113525 -0.00019836426 l 0.085128784 -0.0002593994 l 0.085128784 -0.00030517578 l 0.085128784 -0.00035095215 l 0.085113525 -0.0004272461 l 0.085128784 -0.00048828125 l 0.085128784 -0.0005493164 l 0.085113525 -0.00062561035 l 0.085128784 -0.0007019043 l 0.085128784 -0.00079345703 l 0.085128784 -0.000869751 l 0.085113525 -0.0009765625 l 0.085128784 -0.0010681152 l 0.085128784 -0.001159668 l 0.085128784 -0.0012664795 l 0.085113525 -0.0013885498 l 0.085128784 -0.0014953613 l 0.085128784 -0.0016174316 l 0.085113525 -0.001739502 l 0.085128784 -0.001876831 l 0.085128784 -0.0019989014 l 0.085128784 -0.0021514893 l 0.085113525 -0.0022735596 l 0.085128784 -0.0024414063 l 0.085128784 -0.0025787354 l 0.085113525 -0.002746582 l 0.085128784 -0.00289917 l 0.085128784 -0.0030670166 l 0.085128784 -0.0032348633 l 0.085113525 -0.0034179688 l 0.085128784 -0.0036010742 l 0.085128784 -0.003768921 l 0.085113525 -0.003967285 l 0.085128784 -0.0041656494 l 0.085128784 -0.004348755 l 0.085128784 -0.004562378 l 0.085113525 -0.004776001 l 0.085128784 -0.0049743652 l 0.085128784 -0.005203247 l 0.085128784 -0.00541687 l 0.085113525 -0.005645752 l 0.085128784 -0.005859375 l 0.085128784 -0.0061187744 l 0.085113525 -0.0063476563 l 0.085128784 -0.006591797 l 0.085128784 -0.0068359375 l 0.085128784 -0.007095337 l 0.085113525 -0.0073547363 l 0.085128784 -0.0076141357 l 0.085128784 -0.007873535 l 0.085113525 -0.008163452 l 0.085128784 -0.008422852 l 0.085128784 -0.008712769 l 0.085128784 -0.008987427 l 0.085113525 -0.009292603 l 0.085128784 -0.0095825195 l 0.085128784 -0.009887695 l 0.085113525 -0.010177612 l 0.085128784 -0.010498047 l 0.085128784 -0.010803223 l 0.085128784 -0.011123657 l 0.085113525 -0.011444092 l 0.085128784 -0.011779785 l 0.085128784 -0.01210022 l 0.085113525 -0.012435913 l 0.085128784 -0.012786865 l 0.085128784 -0.013122559 l 0.085128784 -0.0134887695 l 0.085113525 -0.013824463 l 0.085128784 -0.014190674 l 0.085128784 -0.014556885 l 0.085128784 -0.014923096 l 0.085113525 -0.015304565 l 0.085128784 -0.015670776 l 0.085128784 -0.016052246 l 0.085113525 -0.016448975 l 0.085128784 -0.016830444 l 0.085128784 -0.017242432 l 0.085128784 -0.017623901 l 0.085113525 -0.018035889 l 0.085128784 -0.018447876 l 0.085128784 -0.018859863 l 0.085113525 -0.01928711 l 0.085128784 -0.019699097 l 0.085128784 -0.020141602 l 0.085128784 -0.020568848 l 0.085113525 -0.020996094 l 0.085128784 -0.021453857 l 0.085128784 -0.021881104 l 0.085113525 -0.022354126 l 0.085128784 -0.02279663 l 0.085128784 -0.023254395 l 0.085128784 -0.023727417 l 0.085113525 -0.02420044 l 0.085128784 -0.024673462 l 0.085128784 -0.025146484 l 0.085113525 -0.025634766 l 0.085128784 -0.026123047 l 0.085128784 -0.026611328 l 0.085128784 -0.027114868 l 0.085113525 -0.02760315 l 0.085128784 -0.028121948 l 0.085128784 -0.028625488 l 0.085128784 -0.029159546 l 0.085113525 -0.029663086 l 0.085128784 -0.030197144 l 0.085128784 -0.030715942 l 0.085113525 -0.03125 l 0.085128784 -0.031799316 l 0.085128784 -0.032348633 l 0.085128784 -0.03288269 l 0.085113525 -0.033432007 l 0.085128784 -0.033996582 l 0.085128784 -0.034561157 l 0.085113525 -0.035125732 l 0.085128784 -0.035705566 l 0.085128784 -0.03627014 l 0.085128784 -0.036849976 l 0.085113525 -0.03744507 l 0.085128784 -0.038024902 l 0.085128784 -0.038619995 l 0.085113525 -0.039215088 l 0.085128784 -0.03982544 l 0.085128784 -0.04043579 l 0.085128784 -0.041046143 l 0.085113525 -0.041656494 l 0.085128784 -0.042282104 l 0.085128784 -0.042907715 l 0.085113525 -0.043548584 l 0.085128784 -0.044174194 l 0.085128784 -0.044815063 l 0.085128784 -0.045455933 l 0.085113525 -0.04611206 l 0.085128784 -0.04676819 l 0.085128784 -0.047424316 l 0.085128784 -0.048080444 l 0.085113525 -0.04875183 l 0.085128784 -0.049438477 l 0.085128784 -0.050094604 l 0.085113525 -0.05079651 l 0.085128784 -0.051467896 l 0.085128784 -0.05215454 l 0.085128784 -0.052871704 l 0.085113525 -0.05355835 l 0.085128784 -0.054260254 l 0.085128784 -0.05496216 l 0.085113525 -0.05569458 l 0.085128784 -0.056396484 l 0.085128784 -0.057128906 l 0.085128784 -0.057861328 l 0.085113525 -0.05859375 l 0.085128784 -0.059326172 l 0.085128784 -0.060058594 l 0.085113525 -0.060821533 l 0.085128784 -0.061553955 l 0.085128784 -0.062316895 l 0.085128784 -0.063079834 l 0.085113525 -0.06384277 l 0.085128784 -0.06462097 l 0.085128784 -0.06538391 l 0.085113525 -0.06616211 l 0.085128784 -0.06695557 l 0.085128784 -0.067733765 l 0.085128784 -0.06852722 l 0.085113525 -0.06932068 l 0.085128784 -0.070129395 l 0.085128784 -0.07092285 l 0.085128784 -0.071746826 l 0.085113525 -0.07255554 l 0.085128784 -0.07337952 l 0.085128784 -0.07420349 l 0.085113525 -0.075027466 l 0.085128784 -0.0758667 l 0.085128784 -0.07670593 l 0.085128784 -0.077545166 l 0.085113525 -0.07839966 l 0.085128784 -0.07923889 l 0.085128784 -0.08010864 l 0.085113525 -0.080963135 l 0.085128784 -0.081832886 l 0.085128784 -0.08270264 l 0.085128784 -0.08357239 l 0.085113525 -0.0844574 l 0.085128784 -0.08532715 l 0.085128784 -0.08622742 l 0.085113525 -0.087127686 l 0.085128784 -0.088027954 l 0.085128784 -0.088912964 l 0.085128784 -0.08982849 l 0.085113525 -0.09074402 l 0.085128784 -0.091659546 l 0.085128784 -0.09257507 l 0.085113525 -0.09350586 l 0.085128784 -0.094436646 l 0.085128784 -0.09538269 l 0.085128784 -0.09631348 l 0.085113525 -0.09724426 l 0.085128784 -0.09820557 l 0.085128784 -0.09915161 l 0.085128784 -0.100128174 l 0.085113525 -0.10107422 l 0.085128784 -0.10205078 l 0.085128784 -0.103012085 l 0.085113525 -0.10398865 l 0.085128784 -0.10498047 l 0.085128784 -0.10595703 l 0.085128784 -0.10694885 l 0.085113525 -0.107940674 l 0.085128784 -0.108947754 l 0.085128784 -0.109954834 l 0.085113525 -0.110961914 l 0.085128784 -0.111968994 l 0.085128784 -0.112976074 l 0.085128784 -0.11401367 l 0.085113525 -0.11503601 l 0.085128784 -0.11607361 l 0.085128784 -0.117111206 l 0.085113525 -0.1181488 l 0.085128784 -0.1191864 l 0.085128784 -0.12025452 l 0.085128784 -0.121292114 l 0.085113525 -0.12236023 l 0.085128784 -0.123413086 l 0.085128784 -0.12449646 l 0.085113525 -0.12556458 l 0.085128784 -0.12663269 l 0.085128784 -0.12773132 l 0.085128784 -0.12879944 l 0.085113525 -0.12991333 l 0.085128784 -0.1309967 l 0.085128784 -0.13209534 l 0.085128784 -0.13320923 l 0.085113525 -0.13430786 l 0.085128784 -0.13543701 l 0.085128784 -0.13653564 l 0.085113525 -0.13768005 l 0.085128784 -0.13879395 l 0.085128784 -0.13993835 l 0.085128784 -0.1410675 l 0.085113525 -0.14221191 l 0.085128784 -0.14337158 l 0.085128784 -0.14450073 l 0.085113525 -0.14567566 l 0.085128784 -0.14682007 l 0.085128784 -0.147995 l 0.085128784 -0.14916992 l 0.085113525 -0.15032959 l 0.085128784 -0.15151978 l 0.085128784 -0.15270996 l 0.085113525 -0.15388489 l 0.085128784 -0.15509033 l 0.085128784 -0.15626526 l 0.085128784 -0.15748596 l 0.085113525 -0.1586914 l 0.085128784 -0.15989685 l 0.085128784 -0.16111755 l 0.085113525 -0.16233826 l 0.085128784 -0.16355896 l 0.085128784 -0.16479492 l 0.085128784 -0.16603088 l 0.085113525 -0.16726685 l 0.085128784 -0.16850281 l 0.085128784 -0.16975403 l 0.085128784 -0.17102051 l 0.085113525 -0.17225647 l 0.085128784 -0.17353821 l 0.085128784 -0.17478943 l 0.085113525 -0.17607117 l 0.085128784 -0.17733765 l 0.085128784 -0.17861938 l 0.085128784 -0.17991638 l 0.085113525 -0.18119812 l 0.085128784 -0.18249512 l 0.085128784 -0.18379211 l 0.085113525 -0.18508911 l 0.085128784 -0.18640137 l 0.085128784 -0.18771362 l 0.085128784 -0.18904114 l 0.085113525 -0.1903534 l 0.085128784 -0.19168091 l 0.085128784 -0.19300842 l 0.085113525 -0.1943512 l 0.085128784 -0.19567871 l 0.085128784 -0.19703674 l 0.085128784 -0.19837952 l 0.085113525 -0.19973755 l 0.085128784 -0.20109558 l 0.085128784 -0.20246887 l 0.085128784 -0.2038269 l 0.085113525 -0.2052002 l 0.085128784 -0.20657349 l 0.085128784 -0.20796204 l 0.085113525 -0.20933533 l 0.085128784 -0.21073914 l 0.085128784 -0.21212769 l 0.085128784 -0.2135315 l 0.085113525 -0.2149353 l 0.085128784 -0.21635437 l 0.085128784 -0.21775818 l 0.085113525 -0.21917725 l 0.085128784 -0.22059631 l 0.085128784 -0.22203064 l 0.085128784 -0.22346497 l 0.085113525 -0.22489929 l 0.085128784 -0.22634888 l 0.085128784 -0.2277832 l 0.085113525 -0.22923279 l 0.085128784 -0.23069763 l 0.085128784 -0.23214722 l 0.085128784 -0.23362732 l 0.085113525 -0.2350769 l 0.085128784 -0.23657227 l 0.085128784 -0.23803711 l 0.085113525 -0.23951721 l 0.085128784 -0.24101257 l 0.085128784 -0.24250793 l 0.085128784 -0.2440033 l 0.085113525 -0.24549866 l 0.085128784 -0.24700928 l 0.085128784 -0.2485199 l 0.085128784 -0.25003052 l 0.085113525 -0.2515564 l 0.085128784 -0.25306702 l 0.085128784 -0.25460815 l 0.085113525 -0.2561493 l 0.085128784 -0.25767517 l 0.085128784 -0.2592163 l 0.085128784 -0.2607727 l 0.085113525 -0.2623291 l 0.085128784 -0.26387024 l 0.085128784 -0.2654419 l 0.085113525 -0.26701355 l 0.085128784 -0.26856995 l 0.085128784 -0.27015686 l 0.085128784 -0.27172852 l 0.085113525 -0.27331543 l 0.085128784 -0.2749176 l 0.085128784 -0.27648926 l 0.085113525 -0.2781067 l 0.085128784 -0.2796936 l 0.085128784 -0.28131104 l 0.085128784 -0.2829132 l 0.085113525 -0.2845459 l 0.085128784 -0.28614807 l 0.085128784 -0.28779602 l 0.085113525 -0.28941345 l 0.085128784 -0.29104614 l 0.085128784 -0.2926941 l 0.085128784 -0.29432678 l 0.085113525 -0.29597473 l 0.085128784 -0.29763794 l 0.085128784 -0.29930115 l 0.085128784 -0.3009491 l 0.085113525 -0.30262756 l 0.085128784 -0.30430603 l 0.085128784 -0.30596924 l 0.085113525 -0.3076477 l 0.085128784 -0.30934143 l 0.085128784 -0.31103516 l 0.085128784 -0.31271362 l 0.085113525 -0.31443787 l 0.085128784 -0.31611633 l 0.085128784 -0.31784058 l 0.085113525 -0.31954956 l 0.085128784 -0.3212738 l 0.085128784 -0.32299805 l 0.085128784 -0.32470703 l 0.085113525 -0.3264618 l 0.085128784 -0.32818604 l 0.085128784 -0.32992554 l 0.085113525 -0.33166504 l 0.085128784 -0.33343506 l 0.085128784 -0.33517456 l 0.085128784 -0.33694458 l 0.085113525 -0.33869934 l 0.085128784 -0.34046936 l 0.085128784 -0.34223938 l 0.085113525 -0.34402466 l 0.085128784 -0.34580994 l 0.085128784 -0.34757996 l 0.085128784 -0.34939575 l 0.085113525 -0.35118103 l 0.085128784 -0.35298157 l 0.085128784 -0.3547821 l 0.085128784 -0.3565979 l 0.085113525 -0.3584137 l 0.085128784 -0.3602295 l 0.085128784 -0.3620453 l 0.085113525 -0.3638916 l 0.085128784 -0.3657074 l 0.085128784 -0.3675537 l 0.085128784 -0.36940002 l 0.085113525 -0.37124634 l 0.085128784 -0.37309265 l 0.085128784 -0.37495422 l 0.085113525 -0.3768158 l 0.085128784 -0.37867737 l 0.085128784 -0.38053894 l 0.085128784 -0.38241577 l 0.085113525 -0.38430786 l 0.085128784 -0.3861847 l 0.085128784 -0.38807678 l 0.085113525 -0.38996887 l 0.085128784 -0.39186096 l 0.085128784 -0.3937683 l 0.085128784 -0.39567566 l 0.085113525 -0.397583 l 0.085128784 -0.39949036 l 0.085128784 -0.40142822 l 0.085113525 -0.40335083 l 0.085128784 -0.40527344 l 0.085128784 -0.4072113 l 0.085128784 -0.40914917 l 0.085113525 -0.41108704 l 0.085128784 -0.41304016 l 0.085128784 -0.41500854 l 0.085128784 -0.4169464 l 0.085113525 -0.4189148 l 0.085128784 -0.42088318 l 0.085128784 -0.42285156 l 0.085113525 -0.4248352 l 0.085128784 -0.4268036 l 0.085128784 -0.42878723 l 0.085128784 -0.43078613 l 0.085113525 -0.43278503 l 0.085128784 -0.43476868 l 0.085128784 -0.43678284 l 0.085113525 -0.438797 l 0.085128784 -0.4407959 l 0.085128784 -0.44282532 l 0.085128784 -0.44483948 l 0.085113525 -0.4468689 l 0.085128784 -0.44889832 l 0.085128784 -0.45092773 l 0.085113525 -0.45298767 l 0.085128784 -0.4550171 l 0.085128784 -0.45706177 l 0.085128784 -0.45913696 l 0.085113525 -0.46118164 l 0.085128784 -0.46324158 l 0.085128784 -0.46531677 l 0.085113525 -0.46739197 l 0.085128784 -0.4694519 l 0.085128784 -0.47155762 l 0.085128784 -0.4736328 l 0.085113525 -0.47572327 l 0.085128784 -0.47781372 l 0.085128784 -0.47991943 l 0.085128784 -0.48202515 l 0.085113525 -0.48414612 l 0.085128784 -0.48623657 l 0.085128784 -0.4883728 l 0.085113525 -0.49049377 l 0.085128784 -0.49261475 l 0.085128784 -0.49475098 l 0.085128784 -0.4968872 l 0.085113525 -0.4990387 l 0.085128784 -0.5011749 l 0.085128784 -0.5033264 l 0.085113525 -0.5054779 l 0.085128784 -0.50764465 l 0.085128784 -0.5098114 l 0.085128784 -0.51197815 l 0.085113525 -0.5141449 l 0.085128784 -0.5163269 l 0.085128784 -0.51852417 l 0.085113525 -0.5206909 l 0.085128784 -0.52290344 l 0.085128784 -0.52508545 l 0.085128784 -0.527298 l 0.085113525 -0.52949524 l 0.085128784 -0.53170776 l 0.085128784 -0.5339203 l 0.085113525 -0.5361481 l 0.085128784 -0.53837585 l 0.085128784 -0.5405884 l 0.085128784 -0.5428314 l 0.085113525 -0.54507446 l 0.085128784 -0.5473175 l 0.085128784 -0.54956055 l 0.085128784 -0.55181885 l 0.085113525 -0.5540619 l 0.085128784 -0.55633545 l 0.085128784 -0.558609 l 0.085113525 -0.5608673 l 0.085128784 -0.56314087 l 0.085128784 -0.5654297 l 0.085128784 -0.56770325 l 0.085113525 -0.56999207 l 0.085128784 -0.57229614 l 0.085128784 -0.5746002 l 0.085113525 -0.57688904 l 0.085128784 -0.5791931 l 0.085128784 -0.58151245 l 0.085128784 -0.5838318 l 0.085113525 -0.5861511 l 0.085128784 -0.5884857 l 0.085128784 -0.59080505 l 0.085113525 -0.59313965 l 0.085128784 -0.5954895 l 0.085128784 -0.5978241 l 0.085128784 -0.60017395 l 0.085113525 -0.60253906 l 0.085128784 -0.6048889 l 0.085128784 -0.60723877 l 0.085113525 -0.60961914 l 0.085128784 -0.6119995 l 0.085128784 -0.6143646 l 0.085128784 -0.616745 l 0.085113525 -0.6191406 l 0.085128784 -0.621521 l 0.085128784 -0.6239166 l 0.085128784 -0.6263275 l 0.085113525 -0.62872314 l 0.085128784 -0.63113403 l 0.085128784 -0.6335449 l 0.085113525 -0.6359558 l 0.085128784 -0.6383972 l 0.085128784 -0.6408081 l 0.085128784 -0.6432495 l 0.085113525 -0.64567566 l 0.085128784 -0.6481323 l 0.085128784 -0.65057373 l 0.085113525 -0.65301514 l 0.085128784 -0.6554718 l 0.085128784 -0.6579437 l 0.085128784 -0.6604004 l 0.085113525 -0.66285706 l 0.085128784 -0.66534424 l 0.085128784 -0.6678238 l 0.085113525 -0.6702957 l 0.085128784 -0.6727905 l 0.085128784 -0.67528534 l 0.085128784 -0.6777725 l 0.085113525 -0.6802826 l 0.085128784 -0.6827774 l 0.085128784 -0.6852951 l 0.085128784 -0.6878128 l 0.085113525 -0.6903229 l 0.085128784 -0.69285583 l 0.085128784 -0.69538116 l 0.085113525 -0.6979141 l 0.085128784 -0.7004547 l 0.085128784 -0.7029953 l 0.085128784 -0.7055359 l 0.085113525 -0.70809937 l 0.085128784 -0.7106476 l 0.085128784 -0.71321106 l 0.085113525 -0.71577454 l 0.085128784 -0.71834564 l 0.085128784 -0.7209244 l 0.085128784 -0.7234955 l 0.085113525 -0.7260895 l 0.085128784 -0.7286682 l 0.085128784 -0.73126984 l 0.085113525 -0.73386383 l 0.085128784 -0.73646545 l 0.085128784 -0.7390671 l 0.085128784 -0.7416916 l 0.085113525 -0.7442932 l 0.085128784 -0.74692535 l 0.085128784 -0.74954987 l 0.085113525 -0.7521744 l 0.085128784 -0.75481415 l 0.085128784 -0.7574463 l 0.085128784 -0.7600937 l 0.085113525 -0.7627411 l 0.085128784 -0.7653961 l 0.085128784 -0.7680588 l 0.085128784 -0.7707138 l 0.085113525 -0.7733841 l 0.085128784 -0.7760544 l 0.085128784 -0.7787247 l 0.085113525 -0.7814102 l 0.085128784 -0.78409576 l 0.085128784 -0.78678894 l 0.085128784 -0.7894821 l 0.085113525 -0.7921753 l 0.085128784 -0.7948837 l 0.085128784 -0.79759216 l 0.085113525 -0.8003006 l 0.085128784 -0.8030243 l 0.085128784 -0.805748 l 0.085128784 -0.80846405 l 0.085113525 -0.811203 l 0.085128784 -0.81394196 l 0.085128784 -0.8166733 l 0.085113525 -0.8194275 l 0.085128784 -0.8221741 l 0.085128784 -0.8249283 l 0.085128784 -0.8276825 l 0.085113525 -0.83045197 l 0.085128784 -0.8332138 l 0.085128784 -0.8359909 l 0.085113525 -0.838768 l 0.085128784 -0.84155273 l 0.085128784 -0.84433746 l 0.085128784 -0.8471298 l 0.085113525 -0.8499222 l 0.085128784 -0.85272217 l 0.085128784 -0.8555298 l 0.085128784 -0.8583374 l 0.085113525 -0.86115265 l 0.085128784 -0.8639755 l 0.085128784 -0.8667908 l 0.085113525 -0.8696289 l 0.085128784 -0.8724518 l 0.085128784 -0.87529755 l 0.085128784 -0.8781357 l 0.085113525 -0.88098145 l 0.085128784 -0.8838272 l 0.085128784 -0.88668823 l 0.085113525 -0.88955307 l 0.085128784 -0.8924141 l 0.085128784 -0.89528275 l 0.085128784 -0.8981552 l 0.085113525 -0.9010353 l 0.085128784 -0.9039192 l 0.085128784 -0.90680695 l 0.085113525 -0.9096985 l 0.085128784 -0.91259766 l 0.085128784 -0.91550064 l 0.085128784 -0.9184036 l 0.085113525 -0.92131424 l 0.085128784 -0.9242325 l 0.085128784 -0.9271507 l 0.085113525 -0.9300766 l 0.085128784 -0.9330063 l 0.085128784 -0.9359398 l 0.085128784 -0.9388771 l 0.085113525 -0.94182205 l 0.085128784 -0.9447708 l 0.085128784 -0.9477196 l 0.085128784 -0.9506798 l 0.085113525 -0.95364 l 0.085128784 -0.956604 l 0.085128784 -0.95957947 l 0.085113525 -0.9625511 l 0.085128784 -0.9655342 l 0.085128784 -0.9685173 l 0.085128784 -0.9715042 l 0.085113525 -0.97450256 l 0.085128784 -0.9774971 l 0.085128784 -0.9805031 l 0.085113525 -0.98350906 l 0.085128784 -0.9865227 l 0.085128784 -0.9895382 l 0.085128784 -0.99255943 l 0.085113525 -0.9955864 l 0.085128784 -0.9986172 l 0.085128784 -1.0016537 l 0.085113525 -1.0046921 l 0.085128784 -1.0077362 l 0.085128784 -1.010786 l 0.085128784 -1.0138397 l 0.085113525 -1.0168972 l 0.085128784 -1.0199623 v 226.77165 h -0.085128784 h -0.085113525 h -0.085128784 h -0.085128784 h -0.085128784 h -0.085113525 h -0.085128784 h -0.085128784 h -0.085113525 h -0.085128784 h -0.085128784 h -0.085128784 h -0.085113525 h -0.085128784 h -0.085128784 h -0.085113525 h -0.085128784 h -0.085128784 h -0.085128784 h -0.085113525 h -0.085128784 h -0.085128784 h -0.085113525 h -0.085128784 h -0.085128784 h -0.085128784 h -0.085113525 h -0.085128784 h -0.085128784 h -0.085128784 h -0.085113525 h -0.085128784 h -0.085128784 h -0.085113525 h -0.085128784 h -0.085128784 h -0.085128784 h -0.085113525 h -0.085128784 h -0.085128784 h -0.085113525 h -0.085128784 h -0.085128784 h -0.085128784 h -0.085113525 h -0.085128784 h -0.085128784 h -0.085113525 h -0.085128784 h -0.085128784 h -0.085128784 h -0.085113525 h -0.085128784 h -0.085128784 h -0.085113525 h -0.085128784 h -0.085128784 h -0.085128784 h -0.085113525 h -0.085128784 h -0.085128784 h -0.085128784 h -0.085113525 h -0.085128784 h -0.085128784 h -0.085113525 h -0.085128784 h -0.085128784 h -0.085128784 h -0.085113525 h -0.085128784 h -0.085128784 h -0.085113525 h -0.085128784 h -0.085128784 h -0.085128784 h -0.085113525 h -0.085128784 h -0.085128784 h -0.085113525 h -0.085128784 h -0.085128784 h -0.085128784 h -0.085113525 h -0.085128784 h -0.085128784 h -0.085113525 h -0.085128784 h -0.085128784 h -0.085128784 h -0.085113525 h -0.085128784 h -0.085128784 h -0.085128784 h -0.085113525 h -0.085128784 h -0.085128784 h -0.085113525 h -0.085128784 h -0.085128784 h -0.085128784 h -0.085113525 h -0.085128784 h -0.085128784 h -0.085113525 h -0.085128784 h -0.085128784 h -0.085128784 h -0.085113525 h -0.085128784 h -0.085128784 h -0.085113525 h -0.085128784 h -0.085128784 h -0.085128784 h -0.085113525 h -0.085128784 h -0.085128784 h -0.085113525 h -0.085128784 h -0.085128784 h -0.085128784 h -0.085113525 h -0.085128784 h -0.085128784 h -0.085128784 h -0.085113525 h -0.085128784 h -0.085128784 h -0.085113525 h -0.085128784 h -0.085128784 h -0.085128784 h -0.085113525 h -0.085128784 h -0.085128784 h -0.085113525 h -0.085128784 h -0.085128784 h -0.085128784 h -0.085113525 h -0.085128784 h -0.085128784 h -0.085113525 h -0.085128784 h -0.085128784 h -0.085128784 h -0.085113525 h -0.085128784 h -0.085128784 h -0.085128784 h -0.085113525 h -0.085128784 h -0.085128784 h -0.085113525 h -0.085128784 h -0.085128784 h -0.085128784 h -0.085113525 h -0.085128784 h -0.085128784 h -0.085113525 h -0.085128784 h -0.085128784 h -0.085128784 h -0.085113525 h -0.085128784 h -0.085128784 h -0.085113525 h -0.085128784 h -0.085128784 h -0.085128784 h -0.085113525 h -0.085128784 h -0.085128784 h -0.085113525 h -0.085128784 h -0.085128784 h -0.085128784 h -0.085113525 h -0.085128784 h -0.085128784 h -0.085128784 h -0.085113525 h -0.085128784 h -0.085128784 h -0.085113525 h -0.085128784 h -0.085128784 h -0.085128784 h -0.085113525 h -0.085128784 h -0.085128784 h -0.085113525 h -0.085128784 h -0.085128784 h -0.085128784 h -0.085113525 h -0.085128784 h -0.085128784 h -0.085113525 h -0.085128784 h -0.085128784 h -0.085128784 h -0.085113525 h -0.085128784 h -0.085128784 h -0.085113525 h -0.085128784 h -0.085128784 h -0.085128784 h -0.085113525 h -0.085128784 h -0.085128784 h -0.085128784 h -0.085113525 h -0.085128784 h -0.085128784 h -0.085113525 h -0.085128784 h -0.085128784 h -0.085128784 h -0.085113525 h -0.085128784 h -0.085128784 h -0.085113525 h -0.085128784 h -0.085128784 h -0.085128784 h -0.085113525 h -0.085128784 h -0.085128784 h -0.085113525 h -0.085128784 h -0.085128784 h -0.085128784 h -0.085113525 h -0.085128784 h -0.085128784 h -0.085113525 h -0.085128784 h -0.085128784 h -0.085128784 h -0.085113525 h -0.085128784 h -0.085128784 h -0.085128784 h -0.085113525 h -0.085128784 h -0.085128784 h -0.085113525 h -0.085128784 h -0.085128784 h -0.085128784 h -0.085113525 h -0.085128784 h -0.085128784 h -0.085113525 h -0.085128784 h -0.085128784 h -0.085128784 h -0.085113525 h -0.085128784 h -0.085128784 h -0.085113525 h -0.085128784 h -0.085128784 h -0.085128784 h -0.085113525 h -0.085128784 h -0.085128784 h -0.085113525 h -0.085128784 h -0.085128784 h -0.085128784 h -0.085113525 h -0.085128784 h -0.085128784 h -0.085128784 h -0.085113525 h -0.085128784 h -0.085128784 h -0.085113525 h -0.085128784 h -0.085128784 h -0.085128784 h -0.085113525 h -0.085128784 h -0.085128784 h -0.085113525 h -0.085128784 h -0.085128784 h -0.085128784 h -0.085113525 h -0.085128784 h -0.085128784 h -0.085113525 h -0.085128784 h -0.085128784 h -0.085128784 h -0.085113525 h -0.085128784 h -0.085128784 h -0.085113525 h -0.085128784 h -0.085128784 h -0.085128784 h -0.085113525 h -0.085128784 h -0.085128784 h -0.085128784 h -0.085113525 h -0.085128784 h -0.085128784 h -0.085113525 h -0.085128784 h -0.085128784 h -0.085128784 h -0.085113525 h -0.085128784 h -0.085128784 h -0.085113525 h -0.085128784 h -0.085128784 h -0.085128784 h -0.085113525 h -0.085128784 h -0.085128784 h -0.085113525 h -0.085128784 h -0.085128784 h -0.085128784 h -0.085113525 h -0.085128784 h -0.085128784 h -0.085113525 h -0.085128784 h -0.085128784 h -0.085128784 h -0.085113525 h -0.085128784 h -0.085128784 h -0.085128784 h -0.085113525 h -0.085128784 h -0.085128784 h -0.085113525 h -0.085128784 h -0.085128784 h -0.085128784 h -0.085113525 h -0.085128784 h -0.085128784 h -0.085113525 h -0.085128784 h -0.085128784 h -0.085128784 h -0.085113525 h -0.085128784 h -0.085128784 h -0.085113525 h -0.085128784 h -0.085128784 h -0.085128784 h -0.085113525 h -0.085128784 h -0.085128784 h -0.085113525 h -0.085128784 h -0.085128784 h -0.085128784 h -0.085113525 h -0.085128784 h -0.085128784 h -0.085128784 h -0.085113525 h -0.085128784 h -0.085128784 h -0.085113525 h -0.085128784 h -0.085128784 h -0.085128784 h -0.085113525 h -0.085128784 h -0.085128784 h -0.085113525 h -0.085128784 h -0.085128784 h -0.085128784 h -0.085113525 h -0.085128784 h -0.085128784 h -0.085113525 h -0.085128784 h -0.085128784 h -0.085128784 h -0.085113525 h -0.085128784 h -0.085128784 h -0.085128784 h -0.085113525 h -0.085128784 h -0.085128784 h -0.085113525 h -0.085128784 h -0.085128784 h -0.085128784 h -0.085113525 h -0.085128784 h -0.085128784 h -0.085113525 h -0.085128784 h -0.085128784 h -0.085128784 h -0.085113525 h -0.085128784 h -0.085128784 h -0.085113525 h -0.085128784 h -0.085128784 h -0.085128784 h -0.085113525 h -0.085128784 h -0.085128784 h -0.085113525 h -0.085128784 h -0.085128784 h -0.085128784 h -0.085113525 h -0.085128784 h -0.085128784 h -0.085128784 h -0.085113525 h -0.085128784 h -0.085128784 h -0.085113525 h -0.085128784 h -0.085128784 h -0.085128784 h -0.085113525 h -0.085128784 h -0.085128784 h -0.085113525 h -0.085128784 h -0.085128784 h -0.085128784 h -0.085113525 h -0.085128784 h -0.085128784 h -0.085113525 h -0.085128784 h -0.085128784 h -0.085128784 h -0.085113525 h -0.085128784 h -0.085128784 h -0.085113525 h -0.085128784 h -0.085128784 h -0.085128784 h -0.085113525 h -0.085128784 h -0.085128784 h -0.085128784 h -0.085113525 h -0.085128784 h -0.085128784 h -0.085113525 h -0.085128784 h -0.085128784 h -0.085128784 h -0.085113525 h -0.085128784 h -0.085128784 h -0.085113525 h -0.085128784 h -0.085128784 h -0.085128784 h -0.085113525 h -0.085128784 h -0.085128784 h -0.085113525 h -0.085128784 h -0.085128784 h -0.085128784 h -0.085113525 h -0.085128784 h -0.085128784 h -0.085113525 h -0.085128784 h -0.085128784 h -0.085128784 h -0.085113525 h -0.085128784 h -0.085128784 h -0.085128784 h -0.085113525 h -0.085128784 h -0.085128784 h -0.085113525 h -0.085128784 h -0.085128784 h -0.085128784 h -0.085113525 h -0.085128784 h -0.085128784 h -0.085113525 h -0.085128784 h -0.085128784 h -0.085128784 h -0.085113525 h -0.085128784 h -0.085128784 h -0.085113525 h -0.085128784 h -0.085128784 h -0.085128784 h -0.085113525 h -0.085128784 h -0.085128784 h -0.085113525 h -0.085128784 h -0.085128784 h -0.085128784 h -0.085113525 h -0.085128784 h -0.085128784 h -0.085128784 h -0.085113525 h -0.085128784 h -0.085128784 h -0.085113525 h -0.085128784 h -0.085128784 h -0.085128784 h -0.085113525 h -0.085128784 h -0.085128784 h -0.085113525 h -0.085128784 h -0.085128784 h -0.085128784 h -0.085113525 h -0.085128784 h -0.085128784 h -0.085113525 h -0.085128784 h -0.085128784 h -0.085128784 h -0.085113525 h -0.085128784 h -0.085128784 h -0.085113525 h -0.085128784 h -0.085128784 h -0.085128784 h -0.085113525 h -0.085128784 h -0.085128784 h -0.085128784 h -0.085113525 h -0.085128784 h -0.085128784 h -0.085113525 h -0.085128784 h -0.085128784 h -0.085128784 h -0.085113525 h -0.085128784 h -0.085128784 h -0.085113525 h -0.085128784 h -0.085128784 h -0.085128784 h -0.085113525 h -0.085128784 h -0.085128784 h -0.085113525 h -0.085128784 h -0.085128784 h -0.085128784 h -0.085113525 h -0.085128784 h -0.085128784 h -0.085113525 h -0.085128784 h -0.085128784 h -0.085128784 h -0.085113525 h -0.085128784 h -0.085128784 h -0.085128784 h -0.085113525 h -0.085128784 h -0.085128784 h -0.085113525 h -0.085128784 h -0.085128784 h -0.085128784 h -0.085113525 h -0.085128784 h -0.085128784 h -0.085113525 h -0.085128784 h -0.085128784 h -0.085128784 h -0.085113525 h -0.085128784 h -0.085128784 h -0.085113525 h -0.085128784 h -0.085128784 h -0.085128784 h -0.085113525 h -0.085128784 h -0.085128784 h -0.085113525 h -0.085128784 h -0.085128784 h -0.085128784 h -0.085113525 h -0.085128784 h -0.085128784 h -0.085128784 h -0.085113525 h -0.085128784 h -0.085128784 h -0.085113525 h -0.085128784 h -0.085128784 h -0.085128784 h -0.085113525 h -0.085128784 h -0.085128784 h -0.085113525 h -0.085128784 h -0.085128784 h -0.085128784 h -0.085113525 h -0.085128784 h -0.085128784 h -0.085113525 h -0.085128784 h -0.085128784 h -0.085128784 h -0.085113525 h -0.085128784 h -0.085128784 h -0.085128784 h -0.085113525 h -0.085128784 h -0.085128784 h -0.085113525 h -0.085128784 h -0.085128784 h -0.085128784 h -0.085113525 h -0.085128784 h -0.085128784 h -0.085113525 h -0.085128784 h -0.085128784 h -0.085128784 h -0.085113525 h -0.085128784 h -0.085128784 h -0.085113525 h -0.085128784 h -0.085128784 h -0.085128784 h -0.085113525 h -0.085128784 h -0.085128784 h -0.085113525 h -0.085128784 h -0.085128784 h -0.085128784 h -0.085113525 h -0.085128784 h -0.085128784 h -0.085128784 h -0.085113525 h -0.085128784 h -0.085128784 h -0.085113525 h -0.085128784 h -0.085128784 h -0.085128784 h -0.085113525 h -0.085128784 h -0.085128784 h -0.085113525 h -0.085128784 h -0.085128784 h -0.085128784 h -0.085113525 h -0.085128784 h -0.085128784 h -0.085113525 h -0.085128784 h -0.085128784 h -0.085128784 h -0.085113525 h -0.085128784 h -0.085128784 h -0.085113525 h -0.085128784 h -0.085128784 h -0.085128784 h -0.085113525 h -0.085128784 h -0.085128784 h -0.085128784 h -0.085113525 h -0.085128784 h -0.085128784 h -0.085113525 h -0.085128784 h -0.085128784 h -0.085128784 h -0.085113525 h -0.085128784 h -0.085128784 h -0.085113525 h -0.085128784 h -0.085128784 h -0.085128784 h -0.085113525 h -0.085128784 h -0.085128784 h -0.085113525 h -0.085128784 h -0.085128784 h -0.085128784 h -0.085113525 h -0.085128784 h -0.085128784 h -0.085113525 h -0.085128784 h -0.085128784 h -0.085128784 h -0.085113525 h -0.085128784 h -0.085128784 h -0.085128784 h -0.085113525 h -0.085128784 h -0.085128784 h -0.085113525 h -0.085128784 h -0.085128784 h -0.085128784 h -0.085113525 h -0.085128784 h -0.085128784 h -0.085113525 h -0.085128784 h -0.085128784 h -0.085128784 h -0.085113525 h -0.085128784 h -0.085128784 h -0.085113525 h -0.085128784 h -0.085128784 h -0.085128784 h -0.085113525 h -0.085128784 h -0.085128784 h -0.085113525 h -0.085128784 h -0.085128784 h -0.085128784 h -0.085113525 h -0.085128784 h -0.085128784 h -0.085128784 h -0.085113525 h -0.085128784 h -0.085128784 h -0.085113525 h -0.085128784 h -0.085128784 h -0.085128784 h -0.085113525 h -0.085128784 h -0.085128784 h -0.085113525 h -0.085128784 h -0.085128784 h -0.085128784 h -0.085113525 h -0.085128784 h -0.085128784 h -0.085113525 h -0.085128784 h -0.085128784 h -0.085128784 h -0.085113525 h -0.085128784 h -0.085128784 h -0.085113525 h -0.085128784 h -0.085128784 h -0.085128784 h -0.085113525 h -0.085128784 h -0.085128784 h -0.085128784 h -0.085113525 h -0.085128784 h -0.085128784 h -0.085113525 h -0.085128784 h -0.085128784 h -0.085128784 h -0.085113525 h -0.085128784 h -0.085128784 h -0.085113525 h -0.085128784 h -0.085128784 h -0.085128784 h -0.085113525 h -0.085128784 h -0.085128784 h -0.085113525 h -0.085128784 h -0.085128784 h -0.085128784 h -0.085113525 h -0.085128784 h -0.085128784 h -0.085113525 h -0.085128784 h -0.085128784 h -0.085128784 h -0.085113525 h -0.085128784 h -0.085128784 h -0.085128784 h -0.085113525 h -0.085128784 h -0.085128784 h -0.085113525 h -0.085128784 h -0.085128784 h -0.085128784 h -0.085113525 h -0.085128784 h -0.085128784 h -0.085113525 h -0.085128784 h -0.085128784 h -0.085128784 h -0.085113525 h -0.085128784 h -0.085128784 h -0.085113525 h -0.085128784 h -0.085128784 h -0.085128784 h -0.085113525 h -0.085128784 h -0.085128784 h -0.085113525 h -0.085128784 h -0.085128784 h -0.085128784 h -0.085113525 h -0.085128784 h -0.085128784 h -0.085128784 h -0.085113525 h -0.085128784 h -0.085128784 h -0.085113525 h -0.085128784 h -0.085128784 h -0.085128784 h -0.085113525 h -0.085128784 h -0.085128784 h -0.085113525 h -0.085128784 h -0.085128784 h -0.085128784 h -0.085113525 h -0.085128784 h -0.085128784 h -0.085113525 h -0.085128784 h -0.085128784 h -0.085128784 h -0.085113525 h -0.085128784 h -0.085128784 h -0.085128784 h -0.085113525 h -0.085128784 h -0.085128784 h -0.085113525 h -0.085128784 h -0.085128784 h -0.085128784 h -0.085113525 h -0.085128784 h -0.085128784 h -0.085113525 h -0.085128784 h -0.085128784 h -0.085121155 h -0.085128784 h -0.085121155 h -0.085121155 h -0.085128784 h -0.085121155 h -0.085128784 h -0.085121155 h -0.085128784 h -0.085121155 h -0.085128784 h -0.085121155 h -0.085121155 h -0.085128784 h -0.085121155 h -0.085128784 h -0.085121155 h -0.085128784 h -0.085121155 h -0.085121155 h -0.085128784 h -0.085121155 h -0.085128784 h -0.085121155 h -0.085128784 h -0.085121155 h -0.085128784 h -0.085121155 h -0.085121155 h -0.085128784 h -0.085121155 h -0.085128784 h -0.085121155 h -0.085128784 h -0.085121155 h -0.085121155 h -0.085128784 h -0.085121155 h -0.085128784 h -0.085121155 h -0.085128784 h -0.085121155 h -0.085128784 h -0.085121155 h -0.085121155 h -0.085128784 h -0.085121155 h -0.085128784 h -0.085121155 h -0.085128784 h -0.085121155 h -0.085121155 h -0.085128784 h -0.085121155 h -0.085128784 h -0.085121155 h -0.085128784 h -0.085121155 h -0.085128784 h -0.085121155 h -0.085121155 h -0.085128784 h -0.085121155 h -0.085128784 h -0.085121155 h -0.085128784 h -0.085121155 h -0.085121155 h -0.085128784 h -0.085121155 h -0.085128784 h -0.085121155 h -0.085128784 h -0.085121155 h -0.085128784 h -0.085121155 h -0.085121155 h -0.085128784 h -0.085121155 h -0.085128784 h -0.085121155 h -0.085128784 h -0.085121155 h -0.085121155 h -0.085128784 h -0.085121155 h -0.085128784 h -0.085121155 Z "/>
                                            </g>
                                        </g>
                                    </g>
                                </g>
                                <g class="typst-group" clip-path="url(#c36874164E2314C0ADFE608A53A6B4D25)">
                                    <g>
                                        <path class="typst-shape" fill="none" stroke="#405a94" stroke-width="1" stroke-linecap="butt" stroke-linejoin="miter" stroke-miterlimit="4" d="M 0 0m 7.086614 3791.3386 l 0.28374815 -21.238525 l 0.28374863 -21.153564 l 0.28374815 -21.068604 l 0.28374815 -20.983887 l 0.28374863 -20.899414 l 0.28374863 -20.815186 l 0.28374767 -20.730957 l 0.28374863 -20.646729 l 0.28374863 -20.562988 l 0.28374767 -20.479248 l 0.28374863 -20.395996 l 0.28374863 -20.3125 l 0.28374767 -20.229248 l 0.28374863 -20.146484 l 0.28374863 -20.063477 l 0.28374767 -19.980713 l 0.28374863 -19.898438 l 0.28374863 -19.816162 l 0.28374767 -19.733887 l 0.28374863 -19.6521 l 0.28374863 -19.570068 l 0.28374767 -19.488525 l 0.28374863 -19.407227 l 0.28374863 -19.325684 l 0.28374767 -19.244629 l 0.28374863 -19.163818 l 0.28374863 -19.083008 l 0.28374767 -19.002441 l 0.28374863 -18.921875 l 0.28374863 -18.841553 l 0.28374767 -18.761719 l 0.28374958 -18.68164 l 0.28374672 -18.601807 l 0.28374863 -18.52246 l 0.28374863 -18.442871 l 0.28374863 -18.36377 l 0.28374863 -18.284424 l 0.28374863 -18.20581 l 0.28374672 -18.126953 l 0.28374863 -18.04834 l 0.28374863 -17.970215 l 0.28374863 -17.891846 l 0.28374863 -17.81372 l 0.28374863 -17.73584 l 0.28374672 -17.658203 l 0.28374863 -17.58081 l 0.28374863 -17.503174 l 0.28374863 -17.42627 l 0.28374863 -17.349121 l 0.28374863 -17.272217 l 0.28374672 -17.195557 l 0.28374863 -17.118896 l 0.28374863 -17.042725 l 0.28374863 -16.966553 l 0.28374863 -16.890625 l 0.28374863 -16.814697 l 0.28374672 -16.739014 l 0.28374863 -16.663574 l 0.28374863 -16.588379 l 0.28374863 -16.513184 l 0.28374863 -16.437988 l 0.28374863 -16.363281 l 0.28374672 -16.288818 l 0.28374863 -16.214355 l 0.28374863 -16.139893 l 0.28374863 -16.065674 l 0.28374863 -15.991943 l 0.28374863 -15.918213 l 0.28374863 -15.844482 l 0.28374672 -15.770996 l 0.28374863 -15.697754 l 0.28374863 -15.624756 l 0.28374863 -15.551758 l 0.28374863 -15.479004 l 0.28374863 -15.40625 l 0.28374672 -15.3342285 l 0.28374863 -15.261719 l 0.28374863 -15.189697 l 0.28374863 -15.117676 l 0.28374863 -15.046143 l 0.28374863 -14.974365 l 0.28374672 -14.903076 l 0.28374863 -14.832031 l 0.28374863 -14.760742 l 0.28374863 -14.689941 l 0.28374863 -14.619141 l 0.28374863 -14.548828 l 0.28374672 -14.4782715 l 0.28374863 -14.408203 l 0.28374863 -14.337891 l 0.28374863 -14.268311 l 0.28374863 -14.198486 l 0.28374863 -14.12915 l 0.28374863 -14.05957 l 0.28374863 -13.990723 l 0.28374863 -13.921387 l 0.2837448 -13.852783 l 0.28374863 -13.783936 l 0.28374863 -13.715576 l 0.28374863 -13.647217 l 0.28374863 -13.5789795 l 0.28374863 -13.511108 l 0.28374863 -13.443237 l 0.28374863 -13.37561 l 0.28374863 -13.308228 l 0.28374863 -13.240845 l 0.28374863 -13.173706 l 0.28374863 -13.106812 l 0.2837448 -13.039917 l 0.28374863 -12.973389 l 0.28374863 -12.906982 l 0.28374863 -12.840698 l 0.28374863 -12.774536 l 0.28374863 -12.708618 l 0.28374863 -12.642822 l 0.28374863 -12.5772705 l 0.28374863 -12.511841 l 0.28374863 -12.446655 l 0.28374863 -12.38147 l 0.28374863 -12.31665 l 0.28374863 -12.251831 l 0.2837448 -12.187256 l 0.28374863 -12.122925 l 0.28374863 -12.058716 l 0.28374863 -11.994629 l 0.28374863 -11.930664 l 0.28374863 -11.867065 l 0.28374863 -11.803467 l 0.28374863 -11.740112 l 0.28374863 -11.67688 l 0.28374863 -11.61377 l 0.28374863 -11.551025 l 0.28374863 -11.488281 l 0.2837448 -11.425781 l 0.28374863 -11.363525 l 0.28374863 -11.301147 l 0.28374863 -11.239258 l 0.28374863 -11.17749 l 0.28374863 -11.115723 l 0.28374863 -11.054199 l 0.28374863 -10.99292 l 0.28374863 -10.931763 l 0.28374863 -10.870728 l 0.28374863 -10.809937 l 0.28374863 -10.74939 l 0.2837448 -10.688843 l 0.28374863 -10.62854 l 0.28374863 -10.568359 l 0.28374863 -10.508423 l 0.28374863 -10.448608 l 0.28374863 -10.389038 l 0.28374863 -10.32959 l 0.28374863 -10.270264 l 0.28374863 -10.211182 l 0.28374863 -10.152344 l 0.28374863 -10.093384 l 0.28374863 -10.034912 l 0.2837448 -9.97644 l 0.28374863 -9.918213 l 0.28374863 -9.860107 l 0.28374863 -9.802246 l 0.28374863 -9.744385 l 0.28374863 -9.68689 l 0.28374863 -9.629517 l 0.28374863 -9.572144 l 0.28374863 -9.515259 l 0.28374863 -9.458252 l 0.28374863 -9.401611 l 0.28374863 -9.344971 l 0.28374863 -9.288574 l 0.2837448 -9.232422 l 0.28374863 -9.176392 l 0.28374863 -9.120605 l 0.28374863 -9.064819 l 0.28374863 -9.009277 l 0.28374863 -8.953857 l 0.28374863 -8.898804 l 0.28374863 -8.84375 l 0.28374863 -8.788818 l 0.28374863 -8.734253 l 0.28374863 -8.6796875 l 0.28374863 -8.625366 l 0.2837448 -8.571289 l 0.28374863 -8.517212 l 0.28374863 -8.463379 l 0.28374863 -8.40979 l 0.28374863 -8.356201 l 0.28374863 -8.3029785 l 0.28374863 -8.249878 l 0.28374863 -8.196777 l 0.28374863 -8.144165 l 0.28374863 -8.091431 l 0.28374863 -8.03894 l 0.28374863 -7.9866943 l 0.2837448 -7.9345703 l 0.28374863 -7.8825684 l 0.28374863 -7.8309326 l 0.28374863 -7.779175 l 0.28374863 -7.727844 l 0.28374863 -7.6765747 l 0.28374863 -7.6254883 l 0.2837448 -7.574524 l 0.28375244 -7.5238037 l 0.2837448 -7.4732056 l 0.28375244 -7.4227905 l 0.2837448 -7.3725586 l 0.28375244 -7.32251 l 0.2837448 -7.272583 l 0.28375244 -7.2229004 l 0.2837448 -7.17334 l 0.28375244 -7.1239014 l 0.2837448 -7.074707 l 0.2837448 -7.025696 l 0.28375244 -6.9768066 l 0.2837448 -6.9281006 l 0.28375244 -6.8795166 l 0.2837448 -6.831238 l 0.28375244 -6.782959 l 0.2837448 -6.7349854 l 0.28375244 -6.687134 l 0.2837448 -6.6394653 l 0.28375244 -6.59198 l 0.2837448 -6.5446167 l 0.28375244 -6.4974365 l 0.2837448 -6.4504395 l 0.2837448 -6.4035645 l 0.28375244 -6.3569946 l 0.2837448 -6.310486 l 0.28375244 -6.26416 l 0.2837448 -6.2179565 l 0.28375244 -6.172058 l 0.2837448 -6.1262207 l 0.28375244 -6.0806274 l 0.2837448 -6.0351563 l 0.28375244 -5.989807 l 0.2837448 -5.944763 l 0.28375244 -5.8997803 l 0.2837448 -5.8549805 l 0.2837448 -5.810364 l 0.28375244 -5.765991 l 0.2837448 -5.7216797 l 0.28375244 -5.6775513 l 0.2837448 -5.633667 l 0.28375244 -5.589905 l 0.2837448 -5.5463257 l 0.28375244 -5.5028687 l 0.2837448 -5.459656 l 0.28375244 -5.416626 l 0.2837448 -5.373657 l 0.2837448 -5.3309326 l 0.28375244 -5.288391 l 0.2837448 -5.2459717 l 0.28375244 -5.2037964 l 0.2837448 -5.161682 l 0.28375244 -5.119873 l 0.2837448 -5.078125 l 0.28375244 -5.036621 l 0.2837448 -4.995178 l 0.28375244 -4.9540405 l 0.2837448 -4.913025 l 0.28375244 -4.8721313 l 0.2837448 -4.831421 l 0.2837448 -4.7909546 l 0.28375244 -4.7506104 l 0.2837448 -4.710449 l 0.28375244 -4.67041 l 0.2837448 -4.630554 l 0.28375244 -4.5909424 l 0.2837448 -4.5514526 l 0.28375244 -4.512085 l 0.2837448 -4.4729614 l 0.28375244 -4.43396 l 0.2837448 -4.3952026 l 0.28375244 -4.3565063 l 0.2837448 -4.318115 l 0.2837448 -4.279724 l 0.28375244 -4.241638 l 0.2837448 -4.2037354 l 0.28375244 -4.1658936 l 0.2837448 -4.128296 l 0.28375244 -4.0908203 l 0.2837448 -4.053589 l 0.28375244 -4.0164185 l 0.2837448 -3.9795532 l 0.28375244 -3.942749 l 0.2837448 -3.906189 l 0.2837448 -3.869751 l 0.28375244 -3.833496 l 0.2837448 -3.7974243 l 0.28375244 -3.7615356 l 0.2837448 -3.725769 l 0.28375244 -3.690216 l 0.2837448 -3.6548157 l 0.28375244 -3.6195984 l 0.2837448 -3.5845032 l 0.28375244 -3.549652 l 0.2837448 -3.514923 l 0.28375244 -3.4804077 l 0.2837448 -3.445984 l 0.2837448 -3.4118042 l 0.28375244 -3.377777 l 0.2837448 -3.343933 l 0.28375244 -3.3102112 l 0.2837448 -3.276703 l 0.28375244 -3.2433472 l 0.2837448 -3.2101746 l 0.28375244 -3.1771545 l 0.2837448 -3.1443176 l 0.28375244 -3.1116638 l 0.2837448 -3.0791626 l 0.2837448 -3.046814 l 0.28375244 -3.014679 l 0.2837448 -2.9826965 l 0.28375244 -2.9508667 l 0.2837448 -2.91922 l 0.28375244 -2.8877563 l 0.2837448 -2.8564453 l 0.28375244 -2.8253174 l 0.2837448 -2.7943726 l 0.28375244 -2.7635498 l 0.2837448 -2.7329407 l 0.28375244 -2.7025146 l 0.2837448 -2.6722107 l 0.2837448 -2.6420898 l 0.28375244 -2.6121826 l 0.2837448 -2.5823975 l 0.28375244 -2.5527954 l 0.2837448 -2.5233765 l 0.28375244 -2.49411 l 0.2837448 -2.4650269 l 0.28375244 -2.4361267 l 0.2837448 -2.4073792 l 0.28375244 -2.3787842 l 0.2837448 -2.3504028 l 0.28375244 -2.322174 l 0.2837448 -2.294098 l 0.2837448 -2.2662048 l 0.28375244 -2.2384949 l 0.2837448 -2.2109375 l 0.28375244 -2.1835632 l 0.2837448 -2.1563416 l 0.28375244 -2.129303 l 0.2837448 -2.1024475 l 0.28375244 -2.0757446 l 0.2837448 -2.0492249 l 0.28375244 -2.0228577 l 0.2837448 -1.9967041 l 0.2837448 -1.9706421 l 0.28375244 -1.9448242 l 0.2837448 -1.9191589 l 0.28375244 -1.8936157 l 0.2837448 -1.8683167 l 0.28375244 -1.8431396 l 0.2837448 -1.8181763 l 0.28375244 -1.793335 l 0.2837448 -1.7686768 l 0.28375244 -1.7442017 l 0.2837448 -1.7199097 l 0.28375244 -1.6957397 l 0.2837448 -1.6717834 l 0.2837448 -1.6480103 l 0.28375244 -1.6243591 l 0.2837448 -1.6008911 l 0.28375244 -1.5776367 l 0.2837448 -1.5545044 l 0.28375244 -1.5315552 l 0.2837448 -1.5087891 l 0.28375244 -1.486206 l 0.2837448 -1.4637451 l 0.28375244 -1.4414978 l 0.2837448 -1.4194031 l 0.28375244 -1.3974915 l 0.2837448 -1.3757324 l 0.2837448 -1.354126 l 0.28375244 -1.3327637 l 0.2837448 -1.3114929 l 0.28375244 -1.2904358 l 0.2837448 -1.2695313 l 0.28375244 -1.2488098 l 0.2837448 -1.2282715 l 0.28375244 -1.2078552 l 0.2837448 -1.1876526 l 0.28375244 -1.1676025 l 0.2837448 -1.1477356 l 0.2837448 -1.1280518 l 0.28375244 -1.10849 l 0.2837448 -1.0891418 l 0.28375244 -1.0699463 l 0.2837448 -1.0509338 l 0.28375244 -1.032074 l 0.2837448 -1.0133972 l 0.28375244 -0.99487305 l 0.2837448 -0.9765625 l 0.28375244 -0.958374 l 0.2837448 -0.94039917 l 0.28375244 -0.9225464 l 0.2837448 -0.9049072 l 0.2837448 -0.88742065 l 0.28375244 -0.87008667 l 0.2837448 -0.8529663 l 0.28375244 -0.83599854 l 0.2837448 -0.81915283 l 0.28375244 -0.80255127 l 0.2837448 -0.7861023 l 0.28375244 -0.7697754 l 0.2837448 -0.7536926 l 0.28375244 -0.73773193 l 0.2837448 -0.7219238 l 0.2837448 -0.70632935 l 0.28375244 -0.69091797 l 0.2837448 -0.67562866 l 0.28375244 -0.66052246 l 0.2837448 -0.64559937 l 0.28375244 -0.6308594 l 0.2837448 -0.616272 l 0.28375244 -0.60183716 l 0.2837448 -0.58761597 l 0.28375244 -0.57351685 l 0.2837448 -0.55963135 l 0.28375244 -0.54589844 l 0.2837448 -0.5323181 l 0.2837448 -0.5189514 l 0.28375244 -0.5057068 l 0.2837448 -0.49267578 l 0.28375244 -0.47979736 l 0.2837448 -0.46707153 l 0.28375244 -0.45455933 l 0.28375244 -0.4421692 l 0.28373718 -0.42999268 l 0.28375244 -0.41793823 l 0.28375244 -0.4060974 l 0.28375244 -0.39440918 l 0.28373718 -0.38290405 l 0.28375244 -0.3715515 l 0.28375244 -0.36038208 l 0.28373718 -0.34936523 l 0.28375244 -0.33854675 l 0.28375244 -0.32788086 l 0.28375244 -0.31739807 l 0.28373718 -0.30706787 l 0.28375244 -0.29692078 l 0.28375244 -0.28694153 l 0.28375244 -0.27713013 l 0.28373718 -0.26748657 l 0.28375244 -0.25802612 l 0.28375244 -0.24871826 l 0.28373718 -0.23960876 l 0.28375244 -0.2306366 l 0.28375244 -0.2218628 l 0.28375244 -0.21324158 l 0.28373718 -0.20480347 l 0.28375244 -0.1965332 l 0.28375244 -0.18841553 l 0.28375244 -0.18049622 l 0.28373718 -0.17272949 l 0.28375244 -0.16513062 l 0.28375244 -0.1577301 l 0.28373718 -0.15046692 l 0.28375244 -0.14338684 l 0.28375244 -0.13647461 l 0.28375244 -0.12974548 l 0.28373718 -0.123168945 l 0.28375244 -0.11677551 l 0.28375244 -0.11054993 l 0.28375244 -0.10449219 l 0.28373718 -0.098602295 l 0.28375244 -0.09289551 l 0.28375244 -0.08735657 l 0.28375244 -0.081970215 l 0.28373718 -0.07678223 l 0.28375244 -0.07173157 l 0.28375244 -0.06687927 l 0.28373718 -0.062194824 l 0.28375244 -0.057662964 l 0.28375244 -0.05331421 l 0.28375244 -0.0491333 l 0.28373718 -0.045135498 l 0.28375244 -0.041290283 l 0.28375244 -0.037612915 l 0.28375244 -0.03413391 l 0.28373718 -0.030792236 l 0.28375244 -0.027648926 l 0.28375244 -0.024658203 l 0.28373718 -0.021835327 l 0.28375244 -0.019195557 l 0.28375244 -0.016723633 l 0.28375244 -0.014434814 l 0.28373718 -0.012283325 l 0.28375244 -0.0103302 l 0.28375244 -0.008529663 l 0.28375244 -0.0069274902 l 0.28373718 -0.0054626465 l 0.28375244 -0.004180908 l 0.28375244 -0.0030822754 l 0.28373718 -0.0021362305 l 0.28375244 -0.001373291 l 0.28375244 -0.00077819824 l 0.28375244 -0.00035095215 l 0.28373718 -0.000091552734 h 0.28375244 l 0.28375244 -0.000091552734 l 0.28375244 -0.00035095215 l 0.28373718 -0.00077819824 l 0.28375244 -0.001373291 l 0.28375244 -0.0021362305 l 0.28375244 -0.0030822754 l 0.28373718 -0.004180908 l 0.28375244 -0.0054626465 l 0.28375244 -0.0069122314 l 0.28373718 -0.008544922 l 0.28375244 -0.0103302 l 0.28375244 -0.012283325 l 0.28375244 -0.014419556 l 0.28373718 -0.016723633 l 0.28375244 -0.019210815 l 0.28375244 -0.021835327 l 0.28375244 -0.024658203 l 0.28373718 -0.027648926 l 0.28375244 -0.030792236 l 0.28375244 -0.034118652 l 0.28373718 -0.037628174 l 0.28375244 -0.041290283 l 0.28375244 -0.045135498 l 0.28375244 -0.0491333 l 0.28373718 -0.05331421 l 0.28375244 -0.057662964 l 0.28375244 -0.062194824 l 0.28375244 -0.06687927 l 0.28373718 -0.07173157 l 0.28375244 -0.07678223 l 0.28375244 -0.081970215 l 0.28373718 -0.08734131 l 0.28375244 -0.09289551 l 0.28375244 -0.09861755 l 0.28375244 -0.10449219 l 0.28373718 -0.11054993 l 0.28375244 -0.11677551 l 0.28375244 -0.123168945 l 0.28375244 -0.12974548 l 0.28373718 -0.13647461 l 0.28375244 -0.14338684 l 0.28375244 -0.15046692 l 0.28375244 -0.15771484 l 0.28373718 -0.16514587 l 0.28375244 -0.17272949 l 0.28375244 -0.18048096 l 0.28373718 -0.18843079 l 0.28375244 -0.1965332 l 0.28375244 -0.20478821 l 0.28375244 -0.21325684 l 0.28373718 -0.22184753 l 0.28375244 -0.23065186 l 0.28375244 -0.2395935 l 0.28375244 -0.24873352 l 0.28373718 -0.25802612 l 0.28375244 -0.26748657 l 0.28375244 -0.27713013 l 0.28373718 -0.28694153 l 0.28375244 -0.29692078 l 0.28375244 -0.30706787 l 0.28375244 -0.31739807 l 0.28373718 -0.32788086 l 0.28375244 -0.3385315 l 0.28375244 -0.3493805 l 0.28375244 -0.36038208 l 0.28373718 -0.3715515 l 0.28375244 -0.3828888 l 0.28375244 -0.39440918 l 0.28373718 -0.4060974 l 0.28375244 -0.4179535 l 0.28375244 -0.42997742 l 0.28375244 -0.44218445 l 0.28373718 -0.45454407 l 0.28375244 -0.4670868 l 0.28375244 -0.4797821 l 0.28375244 -0.49267578 l 0.28373718 -0.50572205 l 0.28375244 -0.51893616 l 0.28375244 -0.5323334 l 0.28375244 -0.54589844 l 0.28373718 -0.55963135 l 0.28375244 -0.5735321 l 0.28375244 -0.5876007 l 0.28373718 -0.6018524 l 0.28375244 -0.6162567 l 0.28375244 -0.6308441 l 0.28375244 -0.6456146 l 0.28373718 -0.66052246 l 0.28375244 -0.67562866 l 0.28375244 -0.6909027 l 0.28375244 -0.70632935 l 0.28373718 -0.72195435 l 0.28375244 -0.7377167 l 0.28375244 -0.75367737 l 0.28373718 -0.76979065 l 0.28375244 -0.78608704 l 0.28375244 -0.80255127 l 0.28375244 -0.81918335 l 0.28373718 -0.8359833 l 0.28375244 -0.85295105 l 0.28375244 -0.8701019 l 0.28375244 -0.88742065 l 0.28373718 -0.90489197 l 0.28375244 -0.92256165 l 0.28375244 -0.9403839 l 0.28373718 -0.9583893 l 0.28375244 -0.97654724 l 0.28375244 -0.9948883 l 0.28375244 -1.0133972 l 0.28373718 -1.032074 l 0.28375244 -1.0509186 l 0.28375244 -1.0699615 l 0.28375244 -1.0891266 l 0.28373718 -1.1085052 l 0.28375244 -1.1280365 l 0.28375244 -1.1477356 l 0.28375244 -1.1676025 l 0.28373718 -1.1876678 l 0.28375244 -1.2078705 l 0.28375244 -1.228241 l 0.28373718 -1.2488251 l 0.28375244 -1.2695313 l 0.28375244 -1.2904358 l 0.28375244 -1.3115082 l 0.28373718 -1.3327332 l 0.28375244 -1.3541565 l 0.28375244 -1.3757324 l 0.28375244 -1.3974762 l 0.28373718 -1.4194031 l 0.28375244 -1.4414825 l 0.28375244 -1.4637604 l 0.28373718 -1.4861908 l 0.28375244 -1.5087891 l 0.28375244 -1.5315552 l 0.28375244 -1.5545197 l 0.28373718 -1.5776215 l 0.28375244 -1.6009064 l 0.28375244 -1.6243591 l 0.28375244 -1.647995 l 0.28373718 -1.6717987 l 0.28375244 -1.695755 l 0.28375244 -1.7198944 l 0.28373718 -1.7442017 l 0.28375244 -1.7686768 l 0.28375244 -1.793335 l 0.28375244 -1.818161 l 0.28373718 -1.8431549 l 0.28375244 -1.8683014 l 0.28375244 -1.8936462 l 0.28375244 -1.9191437 l 0.28373718 -1.944809 l 0.28375244 -1.9706726 l 0.28375244 -1.9966736 l 0.28373718 -2.0228577 l 0.28375244 -2.0492249 l 0.28375244 -2.0757446 l 0.28375244 -2.1024475 l 0.28373718 -2.129303 l 0.28375244 -2.1563568 l 0.28375244 -2.1835632 l 0.28375244 -2.2109375 l 0.28373718 -2.2384872 l 0.28375244 -2.2662048 l 0.28375244 -2.2941055 l 0.28375244 -2.3221588 l 0.28373718 -2.3504028 l 0.28375244 -2.3787994 l 0.28375244 -2.4073715 l 0.28373718 -2.436119 l 0.28375244 -2.4650269 l 0.28375244 -2.4941177 l 0.28375244 -2.5233765 l 0.28373718 -2.552803 l 0.28375244 -2.5823975 l 0.28375244 -2.6121674 l 0.28375244 -2.642105 l 0.28373718 -2.6722107 l 0.28375244 -2.7024994 l 0.28375244 -2.7329407 l 0.28373718 -2.763565 l 0.28375244 -2.7943573 l 0.28375244 -2.8253174 l 0.28375244 -2.856453 l 0.28373718 -2.8877563 l 0.28375244 -2.9192276 l 0.28375244 -2.9508705 l 0.28375244 -2.982689 l 0.28373718 -3.0146751 l 0.28375244 -3.0468292 l 0.28375244 -3.079155 l 0.28373718 -3.1116562 l 0.28375244 -3.1443214 l 0.28375244 -3.1771584 l 0.28375244 -3.2101707 l 0.28373718 -3.243351 l 0.28375244 -3.276699 l 0.28375244 -3.3102207 l 0.28375244 -3.3439121 l 0.28373718 -3.3777733 l 0.28375244 -3.411808 l 0.28375244 -3.4460106 l 0.28375244 -3.4803839 l 0.28373718 -3.5149288 l 0.28375244 -3.5496435 l 0.28375244 -3.5845296 l 0.28373718 -3.6195858 l 0.28375244 -3.6548123 l 0.28375244 -3.6902103 l 0.28375244 -3.7257776 l 0.28373718 -3.7615166 l 0.28375244 -3.7974262 l 0.28375244 -3.8335056 l 0.28375244 -3.8697548 l 0.28373718 -3.9061794 l 0.28375244 -3.942768 l 0.28375244 -3.9795303 l 0.28373718 -4.0164604 l 0.28375244 -4.05357 l 0.28375244 -4.0908394 l 0.28375244 -4.1282845 l 0.28373718 -4.165901 l 0.28375244 -4.2036858 l 0.28375244 -4.241638 l 0.28375244 -4.27977 l 0.28373718 -4.3180695 l 0.28375244 -4.356537 l 0.28375244 -4.395172 l 0.28373718 -4.433983 l 0.28375244 -4.4729614 l 0.28375244 -4.512108 l 0.28375244 -4.5514374 l 0.28373718 -4.590927 l 0.28375244 -4.6305847 l 0.28375244 -4.670418 l 0.28375244 -4.7104263 l 0.28373718 -4.750595 l 0.28375244 -4.7909393 l 0.28375244 -4.8314667 l 0.28375244 -4.8721313 l 0.28373718 -4.9130096 l 0.28375244 -4.9540253 l 0.28375244 -4.995224 l 0.28373718 -5.0365906 l 0.28375244 -5.078125 l 0.28375244 -5.1198425 l 0.28375244 -5.1617126 l 0.28373718 -5.203781 l 0.28375244 -5.245987 l 0.28375244 -5.288376 l 0.28375244 -5.330948 l 0.28373718 -5.3736725 l 0.28375244 -5.41658 l 0.28375244 -5.459656 l 0.28373718 -5.502899 l 0.28375244 -5.5463257 l 0.28375244 -5.5898895 l 0.28375244 -5.633667 l 0.28373718 -5.677582 l 0.28375244 -5.7216797 l 0.28375244 -5.7659454 l 0.28375244 -5.8103943 l 0.28373718 -5.8549805 l 0.28375244 -5.8997803 l 0.28375244 -5.9447327 l 0.28373718 -5.9898376 l 0.28375244 -6.0351563 l 0.28375244 -6.080597 l 0.28375244 -6.126251 l 0.28373718 -6.1720276 l 0.28375244 -6.2180176 l 0.28375244 -6.26416 l 0.28375244 -6.3104553 l 0.28373718 -6.356964 l 0.28375244 -6.4036255 l 0.28375244 -6.4504395 l 0.28375244 -6.4974365 l 0.28373718 -6.544586 l 0.28375244 -6.5919495 l 0.28375244 -6.6394653 l 0.28373718 -6.687134 l 0.28375244 -6.7349854 l 0.28375244 -6.78302 l 0.28375244 -6.8311768 l 0.28373718 -6.8795776 l 0.28375244 -6.9281006 l 0.28375244 -6.976776 l 0.28375244 -7.0256653 l 0.28373718 -7.0747375 l 0.28375244 -7.123932 l 0.28375244 -7.1733093 l 0.28373718 -7.22287 l 0.28375244 -7.2726135 l 0.28375244 -7.3224792 l 0.28375244 -7.3725586 l 0.28373718 -7.422821 l 0.28375244 -7.4732056 l 0.28375244 -7.5238037 l 0.28375244 -7.574524 l 0.28373718 -7.6254883 l 0.28375244 -7.6765747 l 0.28375244 -7.727783 l 0.28373718 -7.779236 l 0.28375244 -7.8308716 l 0.28375244 -7.8826294 l 0.28375244 -7.9345703 l 0.28373718 -7.9866943 l 0.28375244 -8.039001 l 0.28375244 -8.091431 l 0.28375244 -8.144043 l 0.28373718 -8.196838 l 0.28375244 -8.249817 l 0.28375244 -8.3029785 l 0.28375244 -8.356262 l 0.28373718 -8.40979 l 0.28375244 -8.463379 l 0.28375244 -8.517212 l 0.28373718 -8.571228 l 0.28375244 -8.625366 l 0.28375244 -8.679749 l 0.28375244 -8.734192 l 0.28373718 -8.788879 l 0.28375244 -8.84375 l 0.28375244 -8.898743 l 0.28375244 -8.953918 l 0.28373718 -9.009338 l 0.28375244 -9.064819 l 0.28375244 -9.120483 l 0.28373718 -9.176392 l 0.28375244 -9.232422 l 0.28375244 -9.288635 l 0.28375244 -9.345032 l 0.28373718 -9.40155 l 0.28375244 -9.458252 l 0.28375244 -9.515198 l 0.28375244 -9.572266 l 0.28373718 -9.629456 l 0.28375244 -9.68689 l 0.28375244 -9.744446 l 0.28373718 -9.802185 l 0.28375244 -9.860107 l 0.28375244 -9.918213 l 0.28375244 -9.97644 l 0.28373718 -10.034851 l 0.28375244 -10.093506 l 0.28375244 -10.152222 l 0.28375244 -10.211182 l 0.28373718 -10.270325 l 0.28375244 -10.329529 l 0.28375244 -10.389038 l 0.28373718 -10.448669 l 0.28375244 -10.508423 l 0.28375244 -10.56842 l 0.28375244 -10.628479 l 0.28373718 -10.688843 l 0.28375244 -10.749268 l 0.28375244 -10.810059 l 0.28375244 -10.870728 l 0.28373718 -10.931763 l 0.28375244 -10.99292 l 0.28375244 -11.054199 l 0.28375244 -11.115723 l 0.28373718 -11.17749 l 0.28375244 -11.239136 l 0.28375244 -11.30127 l 0.28373718 -11.363525 l 0.28375244 -11.425781 l 0.28375244 -11.488281 l 0.28375244 -11.551025 l 0.28373718 -11.61377 l 0.28375244 -11.67688 l 0.28375244 -11.740112 l 0.28375244 -11.803467 l 0.28373718 -11.867065 l 0.28375244 -11.930664 l 0.28375244 -11.994629 l 0.28373718 -12.058716 l 0.28375244 -12.122925 l 0.28373718 -12.187256 l 0.28375244 -12.251831 l 0.28375244 -12.31665 l 0.28375244 -12.38147 l 0.28375244 -12.446655 l 0.28375244 -12.511841 l 0.28375244 -12.5772705 l 0.28375244 -12.642822 l 0.28372192 -12.708618 l 0.28375244 -12.774536 l 0.28375244 -12.840698 l 0.28375244 -12.906982 l 0.28375244 -12.973389 l 0.28375244 -13.039917 l 0.28375244 -13.106812 l 0.28372192 -13.173706 l 0.28375244 -13.240845 l 0.28375244 -13.308228 l 0.28375244 -13.37561 l 0.28375244 -13.443237 l 0.28375244 -13.511108 l 0.28375244 -13.5789795 l 0.28372192 -13.647217 l 0.28375244 -13.715576 l 0.28375244 -13.784058 l 0.28375244 -13.852661 l 0.28375244 -13.921509 l 0.28375244 -13.9904785 l 0.28375244 -14.059692 l 0.28375244 -14.129028 l 0.28372192 -14.198608 l 0.28375244 -14.268188 l 0.28375244 -14.338135 l 0.28375244 -14.408081 l 0.28375244 -14.478394 l 0.28375244 -14.548706 l 0.28375244 -14.619141 l 0.28372192 -14.689941 l 0.28375244 -14.760864 l 0.28375244 -14.831909 l 0.28375244 -14.903076 l 0.28375244 -14.974487 l 0.28375244 -15.0460205 l 0.28375244 -15.117798 l 0.28375244 -15.189697 l 0.28372192 -15.261719 l 0.28375244 -15.333984 l 0.28375244 -15.406372 l 0.28375244 -15.479004 l 0.28375244 -15.551758 l 0.28375244 -15.624756 l 0.28375244 -15.697754 l 0.28372192 -15.771118 l 0.28375244 -15.844482 l 0.28375244 -15.918091 l 0.28375244 -15.991943 l 0.28375244 -16.065674 l 0.28375244 -16.139893 l 0.28375244 -16.214355 l 0.28372192 -16.288818 l 0.28375244 -16.363281 l 0.28375244 -16.437988 l 0.28375244 -16.513184 l 0.28375244 -16.588379 l 0.28375244 -16.663574 l 0.28375244 -16.739014 l 0.28375244 -16.814697 l 0.28372192 -16.890625 l 0.28375244 -16.966553 l 0.28375244 -17.042725 l 0.28375244 -17.118896 l 0.28375244 -17.195557 l 0.28375244 -17.272217 l 0.28375244 -17.349121 l 0.28372192 -17.42627 l 0.28375244 -17.503174 l 0.28375244 -17.58081 l 0.28375244 -17.658203 l 0.28375244 -17.73584 l 0.28375244 -17.81372 l 0.28375244 -17.891846 l 0.28375244 -17.96997 l 0.28372192 -18.048584 l 0.28375244 -18.126953 l 0.28375244 -18.20581 l 0.28375244 -18.284424 l 0.28375244 -18.36377 l 0.28375244 -18.442871 l 0.28375244 -18.52246 l 0.28372192 -18.601807 l 0.28375244 -18.68164 l 0.28375244 -18.761719 l 0.28375244 -18.841553 l 0.28375244 -18.921875 l 0.28375244 -19.002441 l 0.28375244 -19.083008 l 0.28372192 -19.163818 l 0.28375244 -19.244629 l 0.28375244 -19.325684 l 0.28375244 -19.407227 l 0.28375244 -19.488525 l 0.28375244 -19.570068 l 0.28375244 -19.6521 l 0.28375244 -19.733887 l 0.28372192 -19.816162 l 0.28375244 -19.898438 l 0.28375244 -19.980713 l 0.28375244 -20.063477 l 0.28375244 -20.146484 l 0.28375244 -20.229248 l 0.28375244 -20.3125 l 0.28372192 -20.395752 l 0.28375244 -20.479492 l 0.28375244 -20.562988 l 0.28375244 -20.646729 l 0.28375244 -20.730957 l 0.28375244 -20.815186 l 0.28375244 -20.899414 l 0.28375244 -20.983887 l 0.28372192 -21.068604 l 0.28375244 -21.153564 l 0.28375244 -21.238525 "/>
                                    </g>
                                </g>
                                <g class="typst-group" clip-path="url(#c36874164E2314C0ADFE608A53A6B4D25)">
                                    <g>
                                        <path class="typst-shape" fill="none" stroke="#000000" stroke-width="0.5" stroke-linecap="butt" stroke-linejoin="miter" stroke-miterlimit="4" d="M 0 0m 131.81102 240.94489 l -5.6692886 14.173218 "/>
                                    </g>
                                </g>
                                <g class="typst-group" clip-path="url(#c36874164E2314C0ADFE608A53A6B4D25)">
                                    <g>
                                        <path class="typst-shape" fill="none" stroke="#ff4136" stroke-width="1" stroke-linecap="butt" stroke-linejoin="miter" stroke-miterlimit="4" stroke-dashoffset="0" stroke-dasharray="3 3" d="M 0 0m 120.47244 304.7244 v -340.15747 "/>
                                    </g>
                                </g>
                                <g class="typst-group" clip-path="url(#c36874164E2314C0ADFE608A53A6B4D25)">
                                    <g>
                                        <path class="typst-shape" fill="none" stroke="#ff4136" stroke-width="1" stroke-linecap="butt" stroke-linejoin="miter" stroke-miterlimit="4" stroke-dashoffset="0" stroke-dasharray="3 3" d="M 0 0m 205.51181 304.7244 v -340.15747 "/>
                                    </g>
                                </g>
                                <g class="typst-group">
                                    <g>
                                        <g class="typst-group">
                                            <g>
                                                <g class="typst-group" transform="matrix(1 0 0 1 0 248.03149606299212)">
                                                    <g>
                                                        <path class="typst-shape" fill="none" stroke="#000000" stroke-width="0.5" stroke-linecap="square" stroke-linejoin="miter" stroke-miterlimit="4" d="M 0 0h 294.4878 "/>
                                                        <g class="typst-group">
                                                            <g>
                                                                <g class="typst-group" transform="matrix(1 0 0 1 297.6377952755906 0)">
                                                                    <g>
                                                                        <path class="typst-shape" fill="#000000" fill-rule="nonzero" d="M 0 0l -5.25 2.1 l 2.1 -2.1 l -2.1 -2.1 Z "/>
                                                                    </g>
                                                                </g>
                                                            </g>
                                                        </g>
                                                    </g>
                                                </g>
                                            </g>
                                        </g>
                                        <g class="typst-group" transform="matrix(1 0 0 1 0 248.03149606299212)">
                                            <g/>
                                        </g>
                                        <g class="typst-group" transform="matrix(1 0 0 1 0 248.03149606299212)">
                                            <g/>
                                        </g>
                                        <g class="typst-group" transform="matrix(1 0 0 1 8.503937007874017 243.4355905511811)">
                                            <g>
                                                <g class="typst-group">
                                                    <g>
                                                        <g class="typst-text" transform="matrix(1 0 0 -1 292.60419527559054 6.0104000000000015)">
                                                            <use xlink:href="#g2682301B47E9BE88250601A5E3D94D" x="0" y="0" fill="#000000" fill-rule="nonzero"/>
                                                        </g>
                                                    </g>
                                                </g>
                                            </g>
                                        </g>
                                        <g class="typst-group" transform="matrix(1 0 0 1 0 248.03149606299212)">
                                            <g/>
                                        </g>
                                    </g>
                                </g>
                                <g class="typst-group">
                                    <g>
                                        <g class="typst-group">
                                            <g>
                                                <g class="typst-group" transform="matrix(1 0 0 1 148.8188976377953 0)">
                                                    <g>
                                                        <path class="typst-shape" fill="none" stroke="#000000" stroke-width="0.5" stroke-linecap="square" stroke-linejoin="miter" stroke-miterlimit="4" transform="matrix(1 0 0 1 0.00000000000000019288187086570813 3.15)" d="M 0 0l 0.000000000000018032176 294.4878 "/>
                                                        <g class="typst-group">
                                                            <g>
                                                                <g class="typst-group">
                                                                    <g>
                                                                        <g class="typst-group" transform="matrix(-0.00000000000000006123233995736766 -1 -1 0.00000000000000006123233995736766 0 0)">
                                                                            <g>
                                                                                <path class="typst-shape" fill="#000000" fill-rule="nonzero" d="M 0 0l -5.25 2.1 l 2.1 -2.1 l -2.1 -2.1 Z "/>
                                                                            </g>
                                                                        </g>
                                                                    </g>
                                                                </g>
                                                            </g>
                                                        </g>
                                                    </g>
                                                </g>
                                            </g>
                                        </g>
                                        <g class="typst-group" transform="matrix(1 0 0 1 148.8188976377953 0)">
                                            <g/>
                                        </g>
                                        <g class="typst-group" transform="matrix(1 0 0 1 148.8188976377953 0)">
                                            <g/>
                                        </g>
                                        <g class="typst-group" transform="matrix(1 0 0 1 141.76978897637795 -5.669291338582677)">
                                            <g>
                                                <g class="typst-group">
                                                    <g>
                                                        <g class="typst-text" transform="matrix(1 0 0 -1 0 6.0104000000000015)">
                                                            <use xlink:href="#gC7970F6AC3F452B7BF0AEDE8945F3238" x="0" y="0" fill="#000000" fill-rule="nonzero"/>
                                                        </g>
                                                    </g>
                                                </g>
                                            </g>
                                        </g>
                                        <g class="typst-group" transform="matrix(1 0 0 1 148.8188976377953 0)">
                                            <g/>
                                        </g>
                                    </g>
                                </g>
                                <g class="typst-group">
                                    <g>
                                        <g class="typst-text" transform="matrix(1 0 0 -1 180 236.86346771653544)">
                                            <use xlink:href="#g26CA26B10379A820194CC14B0854EA4E" x="0" y="0" fill="#000000" fill-rule="nonzero"/>
                                        </g>
                                        <g class="typst-text" transform="matrix(1 0 0 -1 186.8464 236.86346771653544)">
                                            <use xlink:href="#gE3BEDC60622B0EAFFDD587022B1D1DFF" x="0" y="0" fill="#000000" fill-rule="nonzero"/>
                                        </g>
                                        <g class="typst-text" transform="matrix(1 0 0 -1 193.4464 239.03706771653543)">
                                            <use xlink:href="#g5AF9150C01C259893FEC2A02587B601F" x="0" y="0" fill="#000000" fill-rule="nonzero"/>
                                        </g>
                                    </g>
                                </g>
                                <g class="typst-group">
                                    <g>
                                        <g class="typst-text" transform="matrix(1 0 0 -1 123.30708661417322 236.86346771653544)">
                                            <use xlink:href="#g7535C6AC07DD63B16C0CD531C5C1CC14" x="0" y="0" fill="#000000" fill-rule="nonzero"/>
                                        </g>
                                        <g class="typst-text" transform="matrix(1 0 0 -1 130.15348661417323 236.86346771653544)">
                                            <use xlink:href="#gE3BEDC60622B0EAFFDD587022B1D1DFF" x="0" y="0" fill="#000000" fill-rule="nonzero"/>
                                        </g>
                                        <g class="typst-text" transform="matrix(1 0 0 -1 136.7534866141732 239.03706771653543)">
                                            <use xlink:href="#g6B01098431FE09174A8BA72A62B109EE" x="0" y="0" fill="#000000" fill-rule="nonzero"/>
                                        </g>
                                    </g>
                                </g>
                                <g class="typst-text" transform="matrix(1 0 0 -1 113.38582677165354 258.1233102362205)">
                                    <use xlink:href="#gBDCFF228F22C381256A6D8A7AA54C412" x="0" y="0" fill="#000000" fill-rule="nonzero"/>
                                </g>
                                <g class="typst-text" transform="matrix(1 0 0 -1 208.3464566929134 258.1233102362205)">
                                    <use xlink:href="#g2149A6D68B5E9732A6CB3EB90A90AAF" x="0" y="0" fill="#000000" fill-rule="nonzero"/>
                                </g>
                            </g>
                        </g>
                    </g>
                </g>
            </g>
        </g>
    </g>
    <defs id="glyph">
        <symbol id="g2682301B47E9BE88250601A5E3D94D" overflow="visible">
            <path d="M 0 0m 4.6376 3.2824 c 0 0.40480018 -0.3959999 0.60720015 -0.83599997 0.60720015 c -0.3784001 0 -0.6775999 -0.20239997 -0.90639997 -0.60720015 c -0.18479991 0.40480018 -0.4928 0.60720015 -0.9416001 0.60720015 c -0.4311999 0 -0.7831999 -0.20239997 -1.0647999 -0.5984001 c -0.23760003 -0.34319997 -0.36080003 -0.5983999 -0.36080003 -0.76559997 c 0 -0.07920003 0.04400003 -0.12319994 0.13199997 -0.12319994 c 0.07920003 0 0.13200003 0.04399991 0.14960003 0.12319994 c 0.16719997 0.51040006 0.5368 1.1087999 1.1264 1.1087999 c 0.2903999 0 0.4311999 -0.18479991 0.4311999 -0.54559994 c 0 -0.18479991 -0.15839982 -0.8712001 -0.4663999 -2.0504 c -0.14960003 -0.58959997 -0.41359997 -0.87999994 -0.79200006 -0.87999994 c -0.12319994 0 -0.23759997 0.0264 -0.33439994 0.0704 c 0.22880006 0.088 0.34319997 0.2464 0.34319997 0.4752 c 0 0.2288 -0.11439991 0.34319997 -0.352 0.34319997 c -0.29039997 0 -0.51039994 -0.2464 -0.51039994 -0.53679997 c 0 -0.4048 0.4136 -0.6072 0.8448 -0.6072 c 0.36959994 0 0.6688 0.2024 0.9064001 0.6072 c 0.16719985 -0.4048 0.48399997 -0.6072 0.94159985 -0.6072 c 0.4224 0 0.7744 0.2024 1.0560002 0.5984 c 0.23759985 0.34319997 0.3607998 0.5984 0.3607998 0.76559997 c 0 0.07920003 -0.04400015 0.12319994 -0.13199997 0.12319994 c -0.07920027 0 -0.12319994 -0.04399991 -0.14960003 -0.12319994 c -0.14960003 -0.5016 -0.54559994 -1.1087999 -1.1176 -1.1087999 c -0.29040003 0 -0.44000006 0.176 -0.44000006 0.53679997 c 0 0.11440003 0.04400015 0.36080003 0.1408 0.75680006 l 0.29920006 1.1879998 c 0.16720009 0.6600001 0.44000006 0.9944 0.82719994 0.9944 c 0.12319994 0 0.23759985 -0.02639985 0.33440018 -0.0704 c -0.23760009 -0.07920003 -0.35200024 -0.23759985 -0.35200024 -0.47519994 c 0 -0.22880006 0.12320018 -0.34319997 0.36080027 -0.34319997 c 0.2816 0 0.5015998 0.2551999 0.5015998 0.5367999 Z "/>
        </symbol>
        <symbol id="gC7970F6AC3F452B7BF0AEDE8945F3238" overflow="visible">
            <path d="M 0 0m 1.4344 3.8896 c -0.39600003 0 -0.704 -0.22000003 -0.92399997 -0.6600001 c -0.1672 -0.34319997 -0.2552 -0.58080006 -0.2552 -0.7128 c 0 -0.07920003 0.044 -0.12319994 0.1408 -0.12319994 c 0.12319997 0 0.132 0.05279994 0.1672 0.18479991 c 0.20239997 0.6952002 0.48399997 1.0472 0.8448 1.0472 c 0.11440003 0 0.176 -0.07919979 0.176 -0.23759985 c 0 -0.1408 -0.04400003 -0.34319997 -0.1408 -0.5984001 c -0.33440006 -0.90639997 -0.5016 -1.5135999 -0.5016 -1.8391999 c 0 -0.6688 0.4136001 -1.0648 1.0912 -1.0648 c 0.29040003 0 0.5632 0.1056 0.8096001 0.3168 c -0.3080001 -1.1616 -0.79200006 -1.7423999 -1.4520001 -1.7423999 c -0.29919994 0 -0.5015999 0.09679997 -0.6071999 0.29040003 c 0.352 0.01759994 0.528 0.18479991 0.528 0.5015999 c 0 0.22000003 -0.11440003 0.33440003 -0.352 0.33440003 c -0.32560003 0 -0.5192 -0.2728 -0.5192 -0.5984 c 0 -0.4840001 0.44 -0.79200006 0.95039994 -0.79200006 c 1.0120001 0 1.8392 0.93280005 2.0592 1.7952 l 0.8272002 3.3264 c 0.026399612 0.09680009 0.035199642 0.16719985 0.035199642 0.2112 c 0 0.17599988 -0.09679985 0.26399994 -0.2816 0.26399994 c -0.14079976 0 -0.2551999 -0.0704 -0.3343997 -0.20239997 c -0.05280018 -0.18479991 -0.09680009 -0.34319997 -0.12320018 -0.47519994 l -0.5632 -2.2616 c -0.08800006 -0.3168 -0.55439997 -0.7128 -0.9503999 -0.7128 c -0.33440006 0 -0.5016 0.22 -0.5016 0.6688 c 0 0.36959994 0.14960003 0.93279994 0.43999994 1.6895999 c 0.11440003 0.3080001 0.176 0.5192001 0.176 0.6424 c 0 0.43120003 -0.30799997 0.74800014 -0.7392 0.74800014 Z "/>
        </symbol>
        <symbol id="g26CA26B10379A820194CC14B0854EA4E" overflow="visible">
            <path d="M 0 0m 6.1424 2.4112 h -2.508 v 2.508 c 0 0.1408 -0.0704 0.21120024 -0.2112 0.21120024 c -0.1408 0 -0.2112 -0.07040024 -0.2112 -0.21120024 v -2.508 h -2.508 c -0.1408 0 -0.2112 -0.0704 -0.2112 -0.2112 c 0 -0.1408 0.0704 -0.2112 0.2112 -0.2112 h 2.508 v -2.508 c 0 -0.1408 0.0704 -0.2112 0.2112 -0.2112 c 0.1408 0 0.2112 0.0704 0.2112 0.2112 v 2.508 h 2.508 c 0.1408 0 0.21120024 0.0704 0.21120024 0.2112 c 0 0.11439991 -0.09679985 0.2112 -0.21120024 0.2112 Z "/>
        </symbol>
        <symbol id="gE3BEDC60622B0EAFFDD587022B1D1DFF" overflow="visible">
            <path d="M 0 0m 1.2056 0.0264 c 0.15839994 0 0.704 -0.0264 0.87119985 -0.0264 c 0.13200021 0 0.19360018 0.0704 0.19360018 0.2024 c 0 0.0792 -0.05280018 0.132 -0.16720009 0.1408 c -0.2551999 0.0088 -0.37839997 0.0968 -0.37839997 0.26400003 c 0 0.07919997 0.07920003 0.25519997 0.2464 0.51919997 c 0.23760009 0.39600003 0.40479994 0.68639994 0.5192001 0.8800001 h 2.1383998 c 0 -0.06160009 0.00880003 -0.18480015 0.03520012 -0.3784001 c 0.06159973 -0.6424 0.09679985 -0.9944 0.09679985 -1.0384 c 0 -0.16719997 -0.1935997 -0.24639997 -0.5896001 -0.24639997 c -0.16719961 0 -0.24639988 -0.0704 -0.24639988 -0.2112 c 0 -0.088 0.05280018 -0.132 0.15840006 -0.132 c 0.21120024 0 0.8800001 0.0264 1.0911999 0.0264 c 0.17600012 0 0.8008003 -0.0264 0.97679996 -0.0264 c 0.13199997 0 0.19360018 0.0704 0.19360018 0.2112 c 0 0.088 -0.07919979 0.132 -0.23759985 0.132 c -0.24640036 0 -0.3960004 0.0176 -0.44000006 0.044 c -0.04400015 0.0264 -0.07920027 0.1056 -0.0880003 0.23759997 l -0.5279999 5.4384003 c -0.02640009 0.16720009 -0.01760006 0.23759985 -0.20239973 0.23759985 c -0.10560036 0 -0.19360018 -0.0527997 -0.2552004 -0.16720009 l -3.0271997 -5.0775995 c -0.26400006 -0.44 -0.61600006 -0.6776 -1.0472001 -0.7128 c -0.14079997 -0.0088 -0.21119997 -0.0792 -0.21119997 -0.2112 c 0 -0.088 0.0528 -0.132 0.1496 -0.132 c 0.1408 0 0.6072 0.0264 0.748 0.0264 Z m 3.1239998 5.0512 l 0.26399994 -2.728 h -1.8919997 Z "/>
        </symbol>
        <symbol id="g5AF9150C01C259893FEC2A02587B601F" overflow="visible">
            <path d="M 0 0m 0.73304 2.61184 c 0.19712001 0 0.34495997 0.14784002 0.34495997 0.34495997 c 0 0.22176003 -0.11703998 0.33879995 -0.34495997 0.34495997 c 0.13551998 0.28952003 0.44351995 0.52359986 0.84392 0.52359986 c 0.54208004 0 0.89936006 -0.40655994 0.89936006 -0.94863987 c 0 -0.29568005 -0.104720116 -0.57904005 -0.32032013 -0.85624003 c -0.10471988 -0.14168 -0.18479991 -0.24023998 -0.24023998 -0.29567993 l -1.4599199 -1.4476 c -0.08008 -0.07391998 -0.06775999 -0.092399985 -0.06775999 -0.27719998 h 2.53792 l 0.19096017 1.15808 h -0.25872016 c -0.043119907 -0.32647997 -0.092399836 -0.51744 -0.14784002 -0.56056 c -0.030799866 -0.018480003 -0.22176003 -0.030799985 -0.58519983 -0.030799985 h -1.0472001 c 0.41271996 0.36343998 0.79464006 0.68991995 1.15808 0.97944 c 0.27719998 0.21560001 0.47431993 0.40655994 0.5975201 0.57288 c 0.18479991 0.24023986 0.27719998 0.4928 0.27719998 0.75767994 c 0 0.3819201 -0.14784002 0.6837599 -0.4496801 0.90551996 c -0.26487994 0.20327997 -0.5975199 0.3080001 -0.99176 0.3080001 c -0.33879995 0 -0.62832 -0.098560095 -0.88087994 -0.29568005 c -0.26488 -0.21560001 -0.40039998 -0.48663998 -0.40039998 -0.8192799 c 0 -0.20944 0.15399998 -0.36344004 0.34495997 -0.36344004 Z "/>
        </symbol>
        <symbol id="g7535C6AC07DD63B16C0CD531C5C1CC14" overflow="visible">
            <path d="M 0 0m 6.1424 2.376 h -5.4384 c -0.1408 0 -0.2112 -0.06159997 -0.2112 -0.17599988 c 0 -0.11440015 0.0704 -0.17600012 0.2112 -0.17600012 h 5.4384 c 0.1408 0 0.21120024 0.06159997 0.21120024 0.17600012 c 0 0.10559988 -0.10559988 0.17599988 -0.21120024 0.17599988 Z "/>
        </symbol>
        <symbol id="g6B01098431FE09174A8BA72A62B109EE" overflow="visible">
            <path d="M 0 0m 1.86648 4.09024 c -0.26488006 -0.25872016 -0.65911996 -0.38808012 -1.19504 -0.38808012 v -0.27103996 c 0.36343992 0 0.65295994 0.05543995 0.87472 0.16016006 v -3.06768 c 0 -0.08008 -0.006160021 -0.12935999 -0.024639964 -0.15399998 c -0.030800104 -0.06775999 -0.21560001 -0.10472 -0.5544 -0.10472 h -0.25256002 v -0.26488 l 1.0964799 0.02464 l 1.1026399 -0.02464 v 0.26488 h -0.2525599 c -0.33879995 0 -0.52359986 0.036960006 -0.56056 0.10472 c -0.012320042 0.024639994 -0.018480062 0.07391998 -0.018480062 0.15399998 v 3.3695197 c 0 0.16632032 -0.024639845 0.19712019 -0.2155999 0.19712019 Z "/>
        </symbol>
        <symbol id="gBDCFF228F22C381256A6D8A7AA54C412" overflow="visible">
            <path d="M 0 0m 4.3824 1.2672 c 0 0.07920003 -0.04400015 0.12319994 -0.1408 0.12319994 c -0.07040024 0 -0.12319994 -0.06159997 -0.14960003 -0.18479991 c -0.17600012 -0.6952 -0.38720012 -1.0472 -0.62479997 -1.0472 c -0.14960003 0 -0.22880006 0.1232 -0.22880006 0.3696 c 0 0.11440003 0.03520012 0.32560003 0.11439991 0.6336 l 0.5016 1.9799999 c 0.04400015 0.16720009 0.06159997 0.26400018 0.06159997 0.3080001 c 0 0.17599988 -0.09679985 0.26399994 -0.29040003 0.26399994 c -0.18479991 0 -0.30799985 -0.10559988 -0.36959982 -0.30799985 c -0.18480015 0.3255999 -0.4488001 0.48399997 -0.7832 0.48399997 c -0.572 0 -1.0736 -0.29040003 -1.5136 -0.8712001 c -0.40480006 -0.54559994 -0.6072 -1.1087999 -0.6072 -1.6984 c 0 -0.76559997 0.44879997 -1.4167999 1.188 -1.4167999 c 0.3784001 0 0.74800014 0.2024 1.0999999 0.6072 c 0.09680009 -0.3344 0.39600015 -0.6072 0.8096001 -0.6072 c 0.6071999 0 0.79200006 0.7128 0.93280005 1.364 Z m -1.3816001 2.024 c 0.07920003 -0.18479991 0.12320018 -0.30799985 0.12320018 -0.38719988 c 0 -0.03520012 -0.00880003 -0.07920003 -0.01760006 -0.1408 l -0.43120003 -1.6896 c -0.02640009 -0.09680009 -0.08800006 -0.20240009 -0.16720009 -0.3080001 c -0.3255999 -0.40479997 -0.6423999 -0.60719997 -0.9503999 -0.60719997 c -0.34319997 0 -0.5192001 0.264 -0.5192001 0.78319997 c 0 0.2112 0.05280006 0.528 0.15840006 0.9504 c 0.18480003 0.7479999 0.44879997 1.2495999 0.7744 1.5224001 c 0.17600012 0.14959979 0.34319997 0.21999979 0.51040006 0.21999979 c 0.23759985 0 0.41359997 -0.11439991 0.51919985 -0.34319997 Z "/>
        </symbol>
        <symbol id="g2149A6D68B5E9732A6CB3EB90A90AAF" overflow="visible">
            <path d="M 0 0m 2.4728 3.916 c -0.31680012 0 -0.6336 -0.14960003 -0.9416001 -0.44879985 l 0.60720015 2.5080001 c -0.01760006 0.07919979 -0.04400015 0.13199997 -0.14960003 0.13199997 c -0.29040003 0 -0.93280005 -0.07920027 -1.0472001 -0.0880003 c -0.13199997 -0.01760006 -0.20239997 -0.07919979 -0.20239997 -0.21119976 c 0 -0.0880003 0.07920003 -0.13199997 0.2464 -0.13199997 c 0.16719997 0 0.39600003 0.00880003 0.39600003 -0.11440039 c 0 -0.035199642 -0.04400003 -0.21119976 -0.12320006 -0.5367999 l -0.704 -2.8335998 c -0.09679997 -0.36960006 -0.14079997 -0.6688 -0.14079997 -0.8888 c 0 -0.7568 0.40480003 -1.3992 1.1264 -1.3992 c 0.572 0 1.0736 0.2904 1.5136001 0.88 c 0.3959999 0.54559994 0.5983999 1.1176 0.5983999 1.7072 c 0 0.76559997 -0.4488001 1.4255998 -1.1791999 1.4255998 Z m -0.01760006 -0.26399994 c 0.34319997 0 0.51040006 -0.26399994 0.51040006 -0.7832 c 0 -0.23759985 -0.05279994 -0.55439997 -0.15840006 -0.9503999 c -0.19359994 -0.748 -0.4488001 -1.2584001 -0.75679994 -1.5312 c -0.176 -0.1496 -0.34319997 -0.22 -0.51040006 -0.22 c -0.36080003 0 -0.5367999 0.2816 -0.5367999 0.8448 c 0 0.19360006 0.04399991 0.4840001 0.13199997 0.87119997 l 0.19359994 0.79200006 c 0.02640009 0.13199997 0.0704 0.22880006 0.12320006 0.29920006 c 0.34319997 0.44879985 0.6776 0.6775999 1.0031999 0.6775999 Z "/>
        </symbol>
    </defs>
    <defs id="clip-path">
        <clipPath id="c36874164E2314C0ADFE608A53A6B4D25">
            <path d="M 0 0h 297.6378 v 297.6378 h -297.6378 Z "/>
        </clipPath>
    </defs>
</svg>
